<?xml version="1.0" encoding="UTF-8" standalone="no"?>
<!-- Created with Inkscape (http://www.inkscape.org/) -->

<svg
   xmlns:dc="http://purl.org/dc/elements/1.1/"
   xmlns:cc="http://creativecommons.org/ns#"
   xmlns:rdf="http://www.w3.org/1999/02/22-rdf-syntax-ns#"
   xmlns:svg="http://www.w3.org/2000/svg"
   xmlns="http://www.w3.org/2000/svg"
   xmlns:sodipodi="http://sodipodi.sourceforge.net/DTD/sodipodi-0.dtd"
   xmlns:inkscape="http://www.inkscape.org/namespaces/inkscape"
   width="280.49966"
   height="280.50449"
   id="svg2"
   version="1.1"
   inkscape:version="0.92.1 r15371"
   sodipodi:docname="scp_int_logo.svg"
   inkscape:export-filename="H:\SCP\Icons\scp-int-logo-400.png"
   inkscape:export-xdpi="136.89999"
   inkscape:export-ydpi="136.89999">
  <defs
     id="defs4">
    <marker
       style="overflow:visible"
       id="TriangleOutM"
       refX="0"
       refY="0"
       orient="auto"
       inkscape:stockid="TriangleOutM">
      <path
         transform="scale(0.4,0.4)"
         style="fill-rule:evenodd;stroke:#000000;stroke-width:1pt"
         d="m 5.77,0 -8.65,5 0,-10 8.65,5 z"
         id="path4022"
         inkscape:connector-curvature="0" />
    </marker>
    <marker
       style="overflow:visible"
       id="TriangleOutS"
       refX="0"
       refY="0"
       orient="auto"
       inkscape:stockid="TriangleOutS">
      <path
         transform="scale(0.2,0.2)"
         style="fill-rule:evenodd;stroke:#000000;stroke-width:1pt"
         d="m 5.77,0 -8.65,5 0,-10 8.65,5 z"
         id="path4025"
         inkscape:connector-curvature="0" />
    </marker>
  </defs>
  <sodipodi:namedview
     id="base"
     pagecolor="#ffffff"
     bordercolor="#666666"
     borderopacity="1.0"
     inkscape:pageopacity="0.0"
     inkscape:pageshadow="2"
     inkscape:zoom="2.8"
     inkscape:cx="43.883706"
     inkscape:cy="133.49286"
     inkscape:document-units="px"
     inkscape:current-layer="layer1"
     showgrid="false"
     inkscape:showpageshadow="false"
     inkscape:window-width="1121"
     inkscape:window-height="1001"
     inkscape:window-x="1912"
     inkscape:window-y="-8"
     inkscape:window-maximized="1"
     fit-margin-top="14.28"
     fit-margin-bottom="14.29"
     fit-margin-right="5"
     fit-margin-left="5"
     showguides="true"
     inkscape:guide-bbox="true">
    <inkscape:grid
       type="xygrid"
       id="grid3097"
       empspacing="5"
       visible="true"
       enabled="true"
       snapvisiblegridlinesonly="true"
       originx="-9.750165"
       originy="-9.7428411"
       spacingx="1"
       spacingy="1" />
  </sodipodi:namedview>
  <metadata
     id="metadata7">
    <rdf:RDF>
      <cc:Work
         rdf:about="">
        <dc:format>image/svg+xml</dc:format>
        <dc:type
           rdf:resource="http://purl.org/dc/dcmitype/StillImage" />
        <dc:title />
      </cc:Work>
    </rdf:RDF>
  </metadata>
  <g
     inkscape:label="Layer 1"
     inkscape:groupmode="layer"
     id="layer1"
     transform="translate(-9.750165,-762.11488)">
    <path
       style="fill:#ffffff;fill-opacity:1;stroke:#ffffff;stroke-width:4.1;stroke-linejoin:round;stroke-miterlimit:4;stroke-dasharray:none;stroke-opacity:1;paint-order:normal"
       d="m 129.75057,258.07103 c -14.0385,-1.43897 -28.287,-5.70226 -40.320336,-12.06425 -7.078563,-3.74242 -15.095558,-9.16662 -16.125646,-10.91043 -0.464989,-0.78716 -1.08451,-1.4312 -1.376712,-1.4312 -0.292202,0 -5.752935,1.49528 -12.134969,3.32286 l -11.603694,3.32285 -0.761846,-1.14434 c -0.419015,-0.62939 -8.074781,-13.773 -17.012813,-29.20802 l -16.250969,-28.06367 9.177476,-8.89039 c 8.251858,-7.99374 9.106065,-8.97645 8.469443,-9.74353 -1.000879,-1.20599 -1.396198,-18.97382 -0.580226,-26.07857 2.274355,-19.80305 9.473663,-38.122828 21.133435,-53.777379 4.07482,-5.470906 13.578711,-15.377651 18.798008,-19.594833 6.119206,-4.944305 15.030964,-10.524399 22.314093,-13.971961 l 6.788966,-3.213644 3.02524,-12.166896 3.02524,-12.166895 33.87943,-0.129804 33.87942,-0.129804 2.91086,11.746558 c 1.60097,6.460607 3.06311,12.039344 3.24918,12.397195 0.18608,0.357849 2.53097,1.638128 5.21085,2.845062 19.60714,8.830424 37.17869,24.447262 48.63704,43.226518 8.28709,13.581823 13.73126,30.148203 15.33979,46.678343 0.82882,8.51731 0.71278,13.23137 -0.61016,24.78729 -0.0822,0.71812 2.36662,3.4194 8.47066,9.34391 4.72246,4.58357 8.65529,8.48392 8.73961,8.66746 0.12526,0.2726 -32.80318,57.73833 -33.46236,58.39751 -0.11003,0.11003 -5.5891,-1.33808 -12.17571,-3.21803 -11.60507,-3.31233 -11.9963,-3.38796 -12.64293,-2.44406 -1.20936,1.76533 -2.43433,2.80065 -6.52208,5.51234 -14.57093,9.66592 -30.4693,15.57095 -47.71051,17.7208 -5.17269,0.645 -19.00931,0.86573 -23.75778,0.37901 z"
       id="path839"
       inkscape:connector-curvature="0"
       transform="translate(9.750165,762.11488)"
       sodipodi:nodetypes="cscscccscscsssscccccscssccscsssssc" />
    <path
       inkscape:connector-curvature="0"
       id="path2995"
       d="m 111.31197,776.89488 -6.6092,26.40978 c -41.39771,17.43269 -70.753726,58.07217 -71.505667,105.86745 -0.08505,5.40206 0.20476,10.72686 0.832865,15.9453 l -18.779803,18.16174 38.68799,67.00505 24.435269,-6.9852 c 19.303182,15.0066 43.456866,24.1014 69.786176,24.5156 27.64738,0.435 53.19503,-8.7741 73.45352,-24.5156 l 24.44867,6.9852 38.68803,-67.00505 -18.77981,-18.16174 c 0.48516,-4.02887 0.76763,-8.11745 0.83287,-12.26455 0.77231,-49.08976 -28.85626,-91.59363 -71.50567,-109.5482 l -6.6092,-26.40978 z"
       style="fill:#ffffff;stroke:none;fill-opacity:1;stroke-opacity:1"
       sodipodi:nodetypes="cccccccsccccsccc" />
    <g
       id="g5453"
       transform="translate(92.289521,1137.1052)" />
    <path
       style="fill:#000000;fill-opacity:1;stroke:none;stroke-width:1;stroke-linejoin:round;stroke-miterlimit:4;stroke-dasharray:none;stroke-dashoffset:0;stroke-opacity:1"
       d="m 111.31197,776.89488 -6.6092,26.40978 c -41.39771,17.43269 -70.753726,58.07217 -71.505667,105.86745 -0.08505,5.40206 0.20476,10.72686 0.832865,15.9453 l -18.779803,18.16174 38.68799,67.00505 24.435269,-6.9852 c 19.303182,15.0066 43.456866,24.1014 69.786176,24.5156 27.64738,0.435 53.19503,-8.7741 73.45352,-24.5156 l 24.44867,6.9852 38.68803,-67.00505 -18.77981,-18.16174 c 0.48516,-4.02887 0.76763,-8.11745 0.83287,-12.26455 0.77231,-49.08976 -28.85626,-91.59363 -71.50567,-109.5482 l -6.6092,-26.40978 z m 4.29866,6.44797 h 68.77872 l 6.24651,24.99929 c 41.46285,16.42062 70.48877,57.18431 69.74589,104.40323 -0.0658,4.19183 -0.36759,8.32224 -0.88659,12.38548 l -0.22961,1.46752 17.74665,17.17781 -34.38932,59.56302 -23.51644,-6.43988 -2.12783,1.87262 c -19.02831,14.54166 -42.90667,23.02756 -68.71152,22.62156 -24.55998,-0.3864 -47.12217,-8.7687 -65.245723,-22.62156 l -2.254094,-1.91997 -23.390168,6.48723 -34.389363,-59.56302 17.769635,-17.23371 -0.252553,-1.41162 c -0.661357,-5.1821 -0.971192,-10.4753 -0.886593,-15.85125 0.723695,-45.99844 29.484647,-84.96742 69.745889,-100.92406 z"
       id="path3825-1-9-0"
       inkscape:connector-curvature="0"
       sodipodi:nodetypes="ccccccccccccccccccccccccccsccccccccc" />
    <path
       style="fill:#000000;stroke:none;stroke-width:1;stroke-linejoin:round;stroke-miterlimit:4;stroke-opacity:1;stroke-dasharray:none;stroke-dashoffset:0;fill-opacity:1"
       d="m 143.55198,822.0306 0,11.36455 c -38.99551,3.23307 -69.936895,35.60179 -70.56535,75.54861 -0.191109,12.15826 2.450363,23.696 7.307756,33.99959 l -9.833197,5.68224 6.448009,11.17646 9.846639,-5.68225 c 13.677643,19.63759 36.280963,32.64061 62.035163,33.04579 26.62714,0.41897 50.29955,-12.72206 64.45315,-33.04579 l 9.84663,5.68225 6.44801,-11.17646 -9.83319,-5.66884 c 0.002,-0.004 -0.002,-0.0105 0,-0.014 4.5191,-9.5934 7.13005,-20.27472 7.30772,-31.56815 0.64133,-40.7658 -30.51104,-74.64256 -70.56532,-77.9666 l 0,-11.37796 -12.89602,0 z m 12.89602,24.3142 c 32.82482,3.28228 58.19747,31.24509 57.66933,64.81544 -0.1421,9.02004 -2.14445,17.57463 -5.62858,25.30825 -6.18551,11.00665 0.46345,0.0973 -6.46142,11.17656 -11.84957,16.41222 -31.25997,26.96729 -53.03483,26.6247 -21.04871,-0.33112 -39.57577,-10.77202 -51.019849,-26.6247 -6.87442,-11.44526 -0.486731,0.22518 -6.461416,-11.17656 -3.75547,-8.32963 -5.781788,-17.59744 -5.628585,-27.33666 0.517465,-32.8908 25.71035,-59.5861 57.66933,-62.77359 13.04694,-0.0831 -0.23596,-0.0962 12.89602,-0.0134 z"
       id="path4900-6-3"
       inkscape:connector-curvature="0"
       sodipodi:nodetypes="cccccccscccccsccccccccsccsccc" />
    <text
       xml:space="preserve"
       style="font-style:normal;font-variant:normal;font-weight:600;font-stretch:normal;line-height:0%;font-family:'Bauhaus LT Demi';-inkscape-font-specification:'Bauhaus LT Demi Semi-Bold';letter-spacing:0px;word-spacing:0px;fill:#000000;fill-opacity:1;stroke:#000000;stroke-width:2;stroke-miterlimit:4;stroke-dasharray:none"
       x="-12.513789"
       y="945.79724"
       id="text3057"><tspan
         sodipodi:role="line"
         id="tspan3059"
         x="-12.513789"
         y="945.79724"
         style="font-size:23.91925049px;line-height:1.25;stroke-width:2"> </tspan></text>
    <path
       style="fill:#000000;fill-opacity:1"
       d="m 130.39809,974.25444 c -0.13997,-0.33361 -1.64431,-2.70112 -3.34294,-5.26116 -5.09675,-7.68122 -9.27552,-14.98009 -11.25189,-19.65321 l -0.47638,-1.12643 -1.60861,0.66681 c -3.58187,1.48476 -10.49654,5.0845 -13.982974,7.27943 l -4.273869,-7.0571 c 1.040341,-0.33132 2.707482,-1.64707 3.962369,-2.36907 2.702144,-1.55458 7.581284,-3.95785 10.769324,-5.30448 1.25488,-0.5301 2.29731,-0.97438 2.31648,-0.98733 0.0192,-0.0128 -0.24428,-0.99208 -0.58542,-2.17584 -1.91233,-6.63569 -3.2911,-14.71356 -3.69687,-21.65904 l -0.13329,-2.28165 -23.818796,-0.0468 -0.832327,-8.30278 24.651123,-0.0468 0.12531,-2.19039 c 0.39328,-6.87417 1.80329,-15.15203 3.70485,-21.75031 0.34114,-1.1838 0.60458,-2.16121 0.58542,-2.17203 -0.0192,-0.0111 -0.89731,-0.37486 -1.95143,-0.80895 -4.4909,-1.84934 -10.51845,-4.95994 -14.711644,-7.59214 l 3.565606,-7.53227 c 0.693348,0.56145 5.394778,3.22703 8.187448,4.64207 3.36211,1.70357 7.57342,3.54935 7.73628,3.39072 0.0678,-0.066 0.45008,-0.86562 0.84961,-1.77698 2.3179,-5.28718 5.75014,-11.1848 11.8762,-20.40683 l 15.67417,-5.70444 c -0.90122,0.68871 -4.72313,4.94474 -6.98452,7.77787 -2.64309,3.31134 -4.80484,6.41693 -7.01005,10.07075 -2.75598,4.56637 -6.66601,12.58252 -6.29832,12.91251 0.0914,0.082 1.11076,0.40173 2.26527,0.71045 4.71793,1.26161 9.75168,2.2009 14.32866,2.67367 1.50587,0.15555 3.02544,0.31301 3.37682,0.34992 0.35136,0.0369 1.13168,0.058 1.73403,0.047 l 1.09518,-0.0202 c 0,-10.58147 -0.3831,-21.8575 -0.3831,-34.34811 l 8.77951,0.33543 c -0.0322,11.36797 -0.0644,22.73594 -0.0966,34.10391 l 0.79484,0 c 0.43716,0 2.10171,-0.12488 3.69902,-0.27748 l -2.1e-4,0 c 3.50146,-0.33455 7.01358,-0.84451 10.10375,-1.46711 2.8038,-0.56489 8.07795,-1.89117 8.28216,-2.08269 0.0821,-0.0769 -0.35449,-1.28021 -0.97003,-2.67395 -4.26148,-9.64878 -10.65693,-19.16507 -17.86484,-26.58246 l 11.72848,0.0771 c 0.0647,0.32396 1.58584,2.81088 3.3801,5.52651 1.79426,2.71562 4.21191,6.52601 5.37252,8.46754 2.0525,3.43344 5.11138,9.27062 5.96972,11.39184 0.23358,0.57727 0.44068,1.04956 0.46022,1.04956 0.0196,0 1.24481,-0.53178 2.7228,-1.18177 4.22511,-1.85804 11.52428,-5.73948 13.29566,-7.07018 l 2.7138,8.04596 c -4.8443,2.92593 -11.28629,6.17747 -15.04745,7.59508 -0.47687,0.17973 -0.86703,0.38913 -0.86703,0.4653 0,0.0761 0.16109,0.66052 0.35795,1.29855 1.10549,3.5826 2.42904,9.69945 3.09469,14.30224 0.38034,2.62989 0.92522,8.34336 0.92707,9.72095 l 9.3e-4,0.77692 c 8.97036,-0.0312 17.94072,-0.0624 26.91108,-0.0937 l 8e-5,8.39649 c -8.95377,-0.0312 -17.90755,-0.0624 -26.86132,-0.0936 l -0.12626,2.14589 c -0.40101,6.8159 -1.67081,14.467 -3.49615,21.06585 -0.44827,1.62054 -0.79294,2.96758 -0.76594,2.99344 0.027,0.0261 1.24012,0.55591 2.6958,1.1778 4.75419,2.03107 11.95031,5.84745 15.22295,8.07327 l -7.21253,5.25945 c -2.9292,-1.74261 -8.86317,-4.75837 -11.84355,-6.01917 l -1.73406,-0.73354 -0.35229,0.86207 c -0.81578,1.99612 -4.23713,8.57203 -5.95669,11.44884 -1.02012,1.70665 -3.39766,5.44396 -5.28343,8.30514 -1.88575,2.86117 -3.48561,5.39285 -3.55525,5.62599 l -11.67549,0.16997 c 7.12826,-7.24946 13.71189,-17.09716 17.95446,-26.85607 0.51842,-1.19249 0.90072,-2.21003 0.84954,-2.26123 -0.21583,-0.2158 -4.83572,-1.3792 -8.1348,-2.04854 -4.56542,-0.92621 -11.64379,-1.82721 -14.35517,-1.82721 l -0.42982,0 c 0,16.98342 0.20706,20.20397 0.20706,34.12514 l -8.5941,-0.34106 c 0.26558,-12.13761 0.12555,-20.19725 0.0819,-33.6928 l -1.73402,0.0472 c -3.57806,0.0974 -9.88267,0.95798 -14.5112,1.9808 -2.57238,0.56843 -6.16132,1.51703 -6.47643,1.71177 -0.28688,0.17729 0.37719,1.83279 2.38042,5.93434 3.97703,8.14287 9.11929,15.59002 15.67545,22.70168 z m -6.94276,-37.3911 c 5.39061,-1.4618 12.26709,-2.66463 17.76799,-3.1079 1.45568,-0.11731 3.18059,-0.26586 3.83315,-0.33009 l 1.18644,-0.11684 c 0,-6.32772 0,-12.65545 0,-18.98317 -9.9589,-0.0311 -19.91781,-0.0623 -29.87671,-0.0934 l 0.11841,1.59823 c 0.46038,6.21434 1.27738,11.51223 2.58278,16.74824 0.87045,3.49143 1.33345,5.01962 1.52081,5.01962 0.0868,0 1.37706,-0.33062 2.86713,-0.73467 z m 57.43503,-0.95376 c 1.31639,-4.70125 2.28076,-9.44218 2.84963,-14.00919 0.39848,-3.1991 0.73152,-7.3015 0.61127,-7.52941 -10.49945,-0.20716 -18.50276,-0.13691 -29.8032,-0.13691 0,6.38857 0,12.77715 0,19.16572 l 0.42982,0 c 0.84418,0 5.17961,0.37027 7.60153,0.64922 4.96896,0.57228 11.25285,1.79209 15.42384,2.99397 1.00393,0.28929 1.95785,0.53254 2.11982,0.5405 0.21913,0.0111 0.41551,-0.41759 0.76729,-1.6739 z m -34.64745,-39.47224 0,-9.4916 -1.55149,-0.12751 c -5.38615,-0.44271 -6.7828,-0.58737 -9.44259,-0.97815 -3.91046,-0.57452 -6.93102,-1.19093 -10.81832,-2.2077 -1.75686,-0.45953 -3.37311,-0.87557 -3.59168,-0.92454 -0.35369,-0.0793 -0.43833,0.0485 -0.7698,1.16179 -1.72763,5.80244 -3.05811,13.4314 -3.58468,20.55449 l -0.11815,1.59821 c 9.62378,0 19.91781,-0.0623 29.87671,-0.0934 z m 38.10835,9.44597 c 0.12015,-0.22773 -0.21262,-4.32876 -0.61095,-7.52939 -0.46425,-3.73025 -1.55946,-9.2507 -2.55296,-12.86842 -0.41357,-1.50587 -0.78101,-2.76739 -0.81657,-2.80337 -0.0356,-0.036 -1.15775,0.23117 -2.49379,0.59366 -6.63449,1.80009 -13.30334,2.9227 -20.34993,3.42565 l -2.979,0.21263 0,9.55307 0,9.55305 c 10.86916,0 20.85897,-0.0892 29.8032,-0.13688 z"
       id="path2170"
       inkscape:connector-curvature="0"
       sodipodi:nodetypes="cscscccscsscccccsscsccsssccsscscccccccsscsssccsccscccsccccccccscscccccsssccccsccccccscsccccccccscsscccccccssscssssscccccscsscccsccc" />
  </g>
</svg>
