<?xml version="1.0" encoding="UTF-8" standalone="no"?>
<!-- Created with Inkscape (http://www.inkscape.org/) -->

<svg
   xmlns:dc="http://purl.org/dc/elements/1.1/"
   xmlns:cc="http://creativecommons.org/ns#"
   xmlns:rdf="http://www.w3.org/1999/02/22-rdf-syntax-ns#"
   xmlns:svg="http://www.w3.org/2000/svg"
   xmlns="http://www.w3.org/2000/svg"
   xmlns:sodipodi="http://sodipodi.sourceforge.net/DTD/sodipodi-0.dtd"
   xmlns:inkscape="http://www.inkscape.org/namespaces/inkscape"
   width="361.46777"
   height="361.41022"
   id="svg2"
   version="1.1"
   inkscape:version="0.92.1 r15371"
   sodipodi:docname="scp-logo-es.svg"
   inkscape:export-filename="H:\SCP\Icons\scp-logo-es-400.png"
   inkscape:export-xdpi="106.25046"
   inkscape:export-ydpi="106.25046">
  <defs
     id="defs4">
    <marker
       style="overflow:visible"
       id="TriangleOutM"
       refX="0"
       refY="0"
       orient="auto"
       inkscape:stockid="TriangleOutM">
      <path
         style="fill-rule:evenodd;stroke:#000000;stroke-width:0.42666668pt"
         d="M 2.4618667,0 -1.2288,2.1333333 v -4.2666666 z"
         id="path4022"
         inkscape:connector-curvature="0" />
    </marker>
    <marker
       style="overflow:visible"
       id="TriangleOutS"
       refX="0"
       refY="0"
       orient="auto"
       inkscape:stockid="TriangleOutS">
      <path
         style="fill-rule:evenodd;stroke:#000000;stroke-width:0.21333334pt"
         d="M 1.2309333,0 -0.6144,1.0666667 v -2.1333334 z"
         id="path4025"
         inkscape:connector-curvature="0" />
    </marker>
  </defs>
  <sodipodi:namedview
     id="base"
     pagecolor="#ffffff"
     bordercolor="#666666"
     borderopacity="1.0"
     inkscape:pageopacity="0.0"
     inkscape:pageshadow="2"
     inkscape:zoom="2.1061071"
     inkscape:cx="172.38651"
     inkscape:cy="163.75747"
     inkscape:document-units="px"
     inkscape:current-layer="layer1"
     showgrid="false"
     inkscape:showpageshadow="false"
     inkscape:window-width="1920"
     inkscape:window-height="1057"
     inkscape:window-x="-8"
     inkscape:window-y="-8"
     inkscape:window-maximized="1"
     showguides="true"
     inkscape:guide-bbox="true"
     fit-margin-top="3"
     fit-margin-bottom="3"
     fit-margin-right="3"
     fit-margin-left="3"
     inkscape:snap-global="true">
    <inkscape:grid
       type="xygrid"
       id="grid3097"
       empspacing="5"
       visible="true"
       enabled="true"
       snapvisiblegridlinesonly="true"
       originx="22.080635"
       originy="-15.212478"
       spacingx="1.0666667"
       spacingy="1.0666667" />
  </sodipodi:namedview>
  <metadata
     id="metadata7">
    <rdf:RDF>
      <cc:Work
         rdf:about="">
        <dc:format>image/svg+xml</dc:format>
        <dc:type
           rdf:resource="http://purl.org/dc/dcmitype/StillImage" />
        <dc:title></dc:title>
      </cc:Work>
    </rdf:RDF>
  </metadata>
  <g
     inkscape:label="Layer 1"
     inkscape:groupmode="layer"
     id="layer1"
     transform="translate(22.080635,-745.89698)">
    <path
       style="opacity:1;fill:#dfdfdf;fill-opacity:1;stroke:none;stroke-width:8.89999962;stroke-miterlimit:4;stroke-dasharray:none;stroke-opacity:1;paint-order:markers stroke fill"
       d="m -19.080635,839.5033 c -2e-6,-50.04049 40.565826,-90.60632 90.606313,-90.60632 H 245.78082 c 50.04049,0 90.60632,40.56582 90.60632,90.60631 v 174.19761 c -10e-6,50.0405 -40.56583,90.6063 -90.60631,90.6063 H 71.525681 c -50.04048,0 -90.606307,-40.5658 -90.606316,-90.6063 z"
       id="circle4512"
       inkscape:connector-curvature="0"
       sodipodi:nodetypes="ccccccccc" />
    <path
       style="fill:#dfdfdf;fill-opacity:1;stroke:none;stroke-width:4.26666689;stroke-linejoin:round;stroke-miterlimit:4;stroke-dasharray:none;stroke-dashoffset:0;stroke-opacity:1"
       d="m 122.09995,833.06519 -8.12732,26.75623 c -44.157554,18.59487 -73.98908,59.3846 -74.791151,110.36623 -0.09072,5.7622 0.08372,11.71136 0.753703,17.27769 l -18.954295,19.10316 38.977511,66.6233 26.603036,-7.0468 c 20.590066,16.007 43.054156,25.9101 71.138756,26.352 29.49054,0.464 54.72106,-9.0896 76.33011,-25.8806 l 25.87656,6.8448 38.97755,-66.6907 -19.22367,-19.70922 c 0.5175,-4.29746 1.22287,-8.7933 1.29245,-13.21687 0.8238,-52.36242 -29.56782,-95.00614 -75.06053,-114.15768 l -6.98247,-27.16028 z"
       id="path3825-1-9-0"
       inkscape:connector-curvature="0"
       sodipodi:nodetypes="cccccccsccccsccc" />
    <g
       id="g5453"
       transform="translate(98.442156,1212.9122)" />
    <text
       xml:space="preserve"
       style="font-style:normal;font-variant:normal;font-weight:600;font-stretch:normal;font-size:12.80000019px;line-height:0%;font-family:'Bauhaus LT Demi';-inkscape-font-specification:'Bauhaus LT Demi Semi-Bold';letter-spacing:0px;word-spacing:0px;fill:#000000;fill-opacity:1;stroke:#000000;stroke-width:2.13333344;stroke-miterlimit:4;stroke-dasharray:none"
       x="-13.348042"
       y="1008.8504"
       id="text3057"><tspan
         sodipodi:role="line"
         id="tspan3059"
         x="-13.348042"
         y="1008.8504"
         style="font-size:25.51386642px;line-height:1.25;stroke-width:2.13333344"> </tspan></text>
    <path
       style="fill:#000000;stroke:none;stroke-width:2.13333344;stroke-linejoin:round;stroke-miterlimit:4;stroke-dasharray:none;stroke-dashoffset:0;stroke-opacity:1"
       d="m 153.12211,876.83264 v 12.12219 c -41.59521,3.4486 -74.599353,37.97524 -75.269705,80.58518 -0.203849,12.96881 2.613721,25.27573 7.79494,36.26619 l -10.488743,6.0611 6.877876,11.9216 10.503081,-6.0611 c 14.589491,20.9467 38.699691,34.8166 66.170841,35.2488 28.40228,0.4469 53.65285,-13.5702 68.75003,-35.2488 l 10.50307,6.0611 6.87788,-11.9216 -10.48874,-6.0468 c 0.002,0 -0.002,-0.011 0,-0.015 4.82037,-10.23296 7.60539,-21.62637 7.7949,-33.67269 0.68409,-43.48352 -32.54511,-79.61873 -75.26967,-83.16438 v -12.13649 h -13.75576 z m 13.75576,25.93515 c 35.01314,3.5011 62.0773,33.32809 61.51395,69.13647 -0.15157,9.62137 -2.28741,18.74627 -6.00382,26.99546 l -25.1902,-14.54371 5.73158,-9.92988 -36.96858,-0.15754 18.62758,31.93891 5.73155,-9.92986 25.17589,14.54376 c -12.63954,17.5064 -33.34397,28.7651 -56.57049,28.3997 -22.45195,-0.3532 -42.21415,-11.4902 -54.42117,-28.3997 l 25.17589,-14.54376 5.73154,9.92986 18.62759,-31.93891 -36.96858,0.15754 5.73159,9.92988 -25.190206,14.54371 c -4.005835,-8.88494 -6.167241,-18.7706 -6.003824,-29.1591 0.551963,-35.08352 27.42437,-63.55851 61.51395,-66.9585 v 29.07312 H 141.659 l 18.34099,32.09653 18.34099,-32.09653 h -11.46311 z"
       id="path4900-6-3"
       inkscape:connector-curvature="0" />
    <path
       sodipodi:nodetypes="cccccccsccccsccccccsccccscccccscc"
       inkscape:connector-curvature="0"
       id="path2995"
       d="m 118.73277,828.68787 -7.04982,28.17043 c -44.157553,18.59487 -75.470636,61.94365 -76.272707,112.92528 -0.09072,5.7622 0.218411,11.44199 0.88839,17.00832 l -20.03179,19.3725 41.267189,71.4721 26.064287,-7.4509 c 20.590061,16.007 46.353991,25.7082 74.438591,26.15 29.49054,0.464 56.74136,-9.3591 78.35042,-26.15 l 26.07858,7.4509 41.26723,-71.4721 -20.0318,-19.3725 c 0.51751,-4.29746 0.81881,-8.65861 0.8884,-13.08218 0.8238,-52.36241 -30.78001,-97.69987 -76.27272,-116.85142 l -7.04981,-28.17043 z m 4.58524,6.87784 h 73.36396 l 6.66295,26.66591 c 44.22704,17.51532 75.18787,60.99659 74.39561,111.36344 -0.0703,4.47129 -1.6113,14.37575 -1.6113,14.37575 l 19.35134,18.72379 -36.68195,63.534 -25.89232,-7.4081 c -20.29687,15.5112 -47.22871,27.0987 -74.75388,26.6656 -26.19731,-0.4122 -51.71153,-11.8955 -71.043325,-26.672 l -2.993373,0.8494 -22.912618,6.5686 -36.681988,-63.5339 c 0,0 0,0 19.358339,-18.72783 C 43.174007,982.4428 42.17005,975.63616 42.260289,969.90182 43.03223,920.83681 73.710579,879.2699 116.6559,862.24949 Z"
       style="fill:#000000;stroke:#000000;stroke-width:2.76699996;stroke-miterlimit:4;stroke-dasharray:none;stroke-opacity:1" />
    <path
       inkscape:connector-curvature="0"
       id="path4522"
       style="font-style:normal;font-variant:normal;font-weight:bold;font-stretch:normal;font-size:medium;line-height:1.25;font-family:'Nirmala UI';-inkscape-font-specification:'Nirmala UI Bold';letter-spacing:0px;word-spacing:0px;fill:none;fill-opacity:1;stroke:#000000;stroke-width:8.89999962;stroke-miterlimit:4;stroke-dasharray:none;stroke-opacity:1"
       d="m 238.49985,760.79542 q -0.89414,24.71892 -13.4122,39.13828 -12.36902,14.41938 -33.23245,14.41938 -15.79659,0 -38.44831,-12.94801 -16.24367,-9.2696 -23.24782,-9.2696 -18.33001,0 -19.22416,23.54182 H 80.533923 q 0.894147,-24.86604 13.263177,-39.28541 12.51805,-14.41936 33.97757,-14.41936 16.69075,0 35.46783,11.18236 19.37318,11.47664 26.82441,11.47664 7.74927,0 12.66708,-6.474 5.06683,-6.62115 5.36488,-17.3621 z" />
  </g>
</svg>
