<?xml version="1.0" encoding="UTF-8" standalone="no"?>
<!-- Created with Inkscape (http://www.inkscape.org/) -->

<svg
   xmlns:dc="http://purl.org/dc/elements/1.1/"
   xmlns:cc="http://creativecommons.org/ns#"
   xmlns:rdf="http://www.w3.org/1999/02/22-rdf-syntax-ns#"
   xmlns:svg="http://www.w3.org/2000/svg"
   xmlns="http://www.w3.org/2000/svg"
   xmlns:sodipodi="http://sodipodi.sourceforge.net/DTD/sodipodi-0.dtd"
   xmlns:inkscape="http://www.inkscape.org/namespaces/inkscape"
   width="298.13297"
   height="298.13812"
   id="svg2"
   version="1.1"
   inkscape:version="0.92.1 r15371"
   sodipodi:docname="scp_int_logo-full.svg"
   inkscape:export-filename="H:\SCP\Icons\scp-int-logo-full-400.png"
   inkscape:export-xdpi="128.79936"
   inkscape:export-ydpi="128.79936">
  <defs
     id="defs4">
    <marker
       style="overflow:visible"
       id="TriangleOutM"
       refX="0"
       refY="0"
       orient="auto"
       inkscape:stockid="TriangleOutM">
      <path
         style="fill-rule:evenodd;stroke:#000000;stroke-width:0.42666668pt"
         d="M 2.4618667,0 -1.2288,2.1333333 v -4.2666666 z"
         id="path4022"
         inkscape:connector-curvature="0" />
    </marker>
    <marker
       style="overflow:visible"
       id="TriangleOutS"
       refX="0"
       refY="0"
       orient="auto"
       inkscape:stockid="TriangleOutS">
      <path
         style="fill-rule:evenodd;stroke:#000000;stroke-width:0.21333334pt"
         d="M 1.2309333,0 -0.6144,1.0666667 v -2.1333334 z"
         id="path4025"
         inkscape:connector-curvature="0" />
    </marker>
  </defs>
  <sodipodi:namedview
     id="base"
     pagecolor="#ffffff"
     bordercolor="#666666"
     borderopacity="1.0"
     inkscape:pageopacity="0.0"
     inkscape:pageshadow="2"
     inkscape:zoom="1.979899"
     inkscape:cx="96.706746"
     inkscape:cy="124.26099"
     inkscape:document-units="px"
     inkscape:current-layer="layer1"
     showgrid="false"
     inkscape:showpageshadow="false"
     inkscape:window-width="1121"
     inkscape:window-height="1001"
     inkscape:window-x="1912"
     inkscape:window-y="-8"
     inkscape:window-maximized="1"
     showguides="true"
     inkscape:guide-bbox="true"
     fit-margin-top="14.28"
     fit-margin-bottom="14.29"
     fit-margin-right="5"
     fit-margin-left="5">
    <inkscape:grid
       type="xygrid"
       id="grid3097"
       empspacing="5"
       visible="true"
       enabled="true"
       snapvisiblegridlinesonly="true"
       originx="-10.933509"
       originy="-10.925706"
       spacingx="1.0666667"
       spacingy="1.0666667" />
  </sodipodi:namedview>
  <metadata
     id="metadata7">
    <rdf:RDF>
      <cc:Work
         rdf:about="">
        <dc:format>image/svg+xml</dc:format>
        <dc:type
           rdf:resource="http://purl.org/dc/dcmitype/StillImage" />
        <dc:title />
      </cc:Work>
    </rdf:RDF>
  </metadata>
  <g
     inkscape:label="Layer 1"
     inkscape:groupmode="layer"
     id="layer1"
     transform="translate(-10.933509,-813.45587)">
    <path
       style="fill:#4b92db;fill-opacity:1;stroke:none;stroke-width:1.06666672"
       d="m 118.73277,828.68787 -7.04982,28.17043 c -44.157553,18.59487 -75.470636,61.94365 -76.272707,112.92528 -0.09072,5.7622 0.218411,11.44199 0.88839,17.00832 l -20.03179,19.3725 41.267189,71.4721 26.064287,-7.4509 c 20.590061,16.007 46.353991,25.7082 74.438591,26.15 29.49054,0.464 56.74136,-9.3591 78.35042,-26.15 l 26.07858,7.4509 41.26723,-71.4721 -20.0318,-19.3725 c 0.51751,-4.29746 0.81881,-8.65861 0.8884,-13.08218 0.8238,-52.36241 -30.78001,-97.69987 -76.27272,-116.85142 l -7.04981,-28.17043 z"
       id="path4261"
       inkscape:connector-curvature="0"
       sodipodi:nodetypes="cccccccsccccsccc" />
    <g
       id="g4172"
       transform="matrix(1.7623401,0,0,1.7623401,-72.22278,-1276.9227)"
       style="fill:#ffffff;fill-opacity:1">
      <path
         inkscape:connector-curvature="0"
         style="fill:#ffffff;fill-opacity:1;stroke-width:1.06666672"
         d="m 191.68878,1304.8873 -1.44872,-0.7906 c -3.07148,6.3342 -7.13853,12.0986 -12.00363,17.0844 l -8.46345,-8.4634 c 4.14632,-4.2727 7.48946,-9.1225 9.95229,-14.3639 l -1.44208,-0.7883 c -2.43465,5.1975 -5.71027,9.9264 -9.66074,14.0009 l -7.66673,-7.6668 c 3.29125,-3.4215 5.90289,-7.3254 7.78787,-11.5444 l -1.43078,-0.7808 c -1.84597,4.1581 -4.39264,7.9393 -7.50439,11.1803 l -8.47273,-8.4727 c 2.35627,-2.497 4.17538,-5.3699 5.41346,-8.4788 l -1.43109,-0.7807 c -1.18301,3.0315 -2.93175,5.7837 -5.12233,8.1182 l -7.69015,-7.689 c 2.19071,-2.4448 3.46121,-5.512 3.64099,-8.7889 h 10.88509 c -0.0926,2.9411 -0.69507,5.7547 -1.71344,8.36 l 1.4311,0.7808 c 1.14556,-2.8804 1.79247,-5.9615 1.88502,-9.1411 h 11.9992 c -0.10797,5.2976 -1.28912,10.3352 -3.32113,14.9123 l 1.43078,0.7807 c 2.18187,-4.8865 3.38755,-10.1966 3.49428,-15.6936 h 10.86449 c -0.11427,7.4603 -1.83526,14.5344 -4.81946,20.9036 l 1.44209,0.7883 c 3.1546,-6.7129 4.86913,-14.0707 4.98219,-21.6918 h 11.9984 c -0.44387,9.7662 -2.43307,19.1183 -6.4658,27.4347 l 1.44936,0.7902 c 4.33812,-8.9351 6.64105,-18.8022 6.64105,-29.0271 0,-8.6952 -1.66592,-17.1307 -4.83118,-24.9565 l -1.48679,0.639 c 2.98117,7.3848 4.59697,15.3265 4.69631,23.5154 h -12.00001 c -0.0973,-6.5328 -1.38103,-12.8678 -3.72942,-18.7731 l -1.47577,0.6324 c 2.26529,5.7091 3.50532,11.8292 3.60102,18.1408 h -10.86571 c -0.0926,-4.811 -1.03097,-9.479 -2.72426,-13.8467 l -1.47576,0.634 c 1.61051,4.1682 2.50361,8.6226 2.59742,13.2127 h -12.00041 c -0.085,-2.9333 -0.64061,-5.7858 -1.62594,-8.4727 l -1.47548,0.633 c 0.90506,2.4889 1.41377,5.1264 1.49878,7.8396 H 146.1475 c -0.17975,-3.2774 -1.45028,-6.3442 -3.64099,-8.7889 l 7.69782,-7.6966 c 2.37707,2.5282 4.17499,5.464 5.32989,8.6464 l 1.47548,-0.6331 c -1.23591,-3.3662 -3.14863,-6.4719 -5.67272,-9.1471 l 8.48525,-8.4845 c 3.62083,3.7689 6.38463,8.1444 8.21631,12.8912 l 1.47576,-0.634 c -1.9124,-4.9305 -4.7912,-9.4766 -8.55794,-13.391 l 7.68288,-7.6842 c 4.75809,4.9071 8.41378,10.6013 10.86369,16.7815 l 1.47577,-0.6324 c -2.53132,-6.3649 -6.30145,-12.2294 -11.20531,-17.2815 l 8.48404,-8.4856 c 6.0002,6.1468 10.62866,13.2793 13.75415,21.0247 l 1.48679,-0.639 c -3.30256,-8.1727 -8.23974,-15.6791 -14.66072,-22.0997 -6.44439,-6.4452 -13.98391,-11.3934 -22.19216,-14.6966 l -0.59116,1.5051 c 7.76242,3.1266 14.91066,7.7604 21.06875,13.7719 l -8.48404,8.4852 c -4.96685,-4.8134 -10.72114,-8.5446 -16.96807,-11.0724 l -0.58553,1.4922 c 6.04059,2.4506 11.60873,6.0595 16.42011,10.7267 l -7.68248,7.6829 c -3.73479,-3.5928 -8.04146,-6.383 -12.7099,-8.293 l -0.58649,1.4921 c 4.46694,1.8306 8.5866,4.5005 12.16274,7.9353 l -8.48403,8.484 c -2.38652,-2.2496 -5.11547,-4.0149 -8.06409,-5.2463 l -0.58677,1.4935 c 2.74788,1.1514 5.2891,2.7944 7.51692,4.8872 l -7.69661,7.6967 c -2.44633,-2.1911 -5.51241,-3.4613 -8.79053,-3.6401 v -10.8847 c 3.12815,0.096 6.15688,0.7609 8.97022,1.9411 l 0.58677,-1.4934 c -2.99783,-1.2526 -6.22593,-1.954 -9.55696,-2.0519 v -11.9996 c 4.85865,0.097 9.56625,1.0852 13.94274,2.8785 l 0.5865,-1.4921 c -4.56063,-1.8661 -9.46772,-2.8914 -14.52947,-2.989 v -10.8706 c 6.44318,0.098 12.69051,1.3832 18.50094,3.7388 l 0.58551,-1.4921 c -5.99536,-2.4286 -12.43854,-3.7515 -19.08686,-3.8499 v -12.0009 c 8.1731,0.099 16.10029,1.7097 23.47143,4.6778 l 0.59117,-1.5051 c -7.79917,-3.1402 -16.20326,-4.7949 -24.86336,-4.7949 -10.69893,0 -20.8079,2.5528 -29.77247,7.0574 l 0.7313,1.3996 c 8.67464,-4.3466 18.27198,-6.7146 28.23962,-6.8349 v 12.0013 c -8.12909,0.1208 -15.81036,2.0934 -22.66059,5.495 l 0.72876,1.3958 c 6.74887,-3.341 14.19875,-5.1711 21.9317,-5.2891 v 10.8661 c -6.04462,0.119 -11.76418,1.5728 -16.88328,4.0712 l 0.73317,1.4021 c 4.98341,-2.4189 10.4631,-3.7558 16.15035,-3.8704 v 12.0007 c -3.77129,0.1115 -7.34811,1.005 -10.57779,2.5204 l 0.73696,1.4074 c 3.05514,-1.42 6.38827,-2.2183 9.84083,-2.3251 v 10.8863 c -1.68856,0.094 -3.29912,0.4792 -4.78353,1.1053 l 0.7357,1.4068 c 1.51829,-0.6217 3.15872,-0.9491 4.84936,-0.9491 3.41905,0 6.63297,1.3313 9.05099,3.7487 2.41768,2.4176 3.74896,5.6326 3.74896,9.0521 0,7.0579 -5.74096,12.8016 -12.79995,12.8016 -3.41999,0 -6.63459,-1.3319 -9.0522,-3.7496 -2.41765,-2.419 -3.74929,-5.6328 -3.74929,-9.0522 0,-3.4194 1.3316,-6.6346 3.74929,-9.0522 1.22297,-1.2223 2.64935,-2.1637 4.20244,-2.7995 l -0.73569,-1.4068 c -1.47516,0.6229 -2.82501,1.4839 -4.00176,2.5379 l -7.70105,-7.7011 c 1.98953,-1.8696 4.2299,-3.3813 6.64509,-4.5037 l -0.73695,-1.4075 c -2.59743,1.2193 -4.96968,2.8396 -7.03437,4.7861 l -8.49292,-8.4934 c 2.97834,-2.8609 6.33739,-5.1857 9.95512,-6.9431 l -0.73316,-1.4022 c -3.82073,1.8644 -7.30855,4.3079 -10.34196,7.2243 l -7.696612,-7.6958 c 3.884647,-3.7692 8.268402,-6.8402 12.989752,-9.1767 l -0.72876,-1.3957 c -4.94223,2.4548 -9.456011,5.6496 -13.378212,9.456 l -8.501806,-8.5023 c 4.873981,-4.7581 10.373463,-8.6439 16.300988,-11.6147 l -0.7313,-1.3996 c -12.957041,6.5114 -23.505756,17.1227 -29.929155,30.131 l 1.394234,0.7524 c 2.99562,-6.0927 6.957637,-11.7415 11.831619,-16.7359 l 8.502613,8.5026 c -3.955153,4.0749 -7.259688,8.7824 -9.748366,13.9541 l 1.388903,0.7498 c 2.370443,-4.9519 5.548747,-9.5383 9.474987,-13.5874 l 7.697015,7.6962 c -3.102349,3.2274 -5.669084,6.969 -7.571835,11.079 l 1.392054,0.7511 c 1.792147,-3.907 4.241211,-7.525 7.300471,-10.7094 l 8.49293,8.4933 c -2.17088,2.303 -3.93909,4.989 -5.19421,7.9441 l 1.40336,0.7591 c 1.15344,-2.7719 2.80676,-5.3352 4.91557,-7.5784 l 7.70106,7.7003 c -2.11419,2.3632 -3.45649,5.4183 -3.64285,8.7853 h -10.88751 c 0.0966,-3.1043 0.75113,-6.112 1.91365,-8.9077 l -1.40336,-0.7589 c -1.268,2.9852 -2.01158,6.2465 -2.11326,9.6663 H 92.928394 c 0.107978,-5.4001 1.319003,-10.6145 3.512859,-15.3948 l -1.392052,-0.7511 c -2.28326,4.9297 -3.610138,10.3908 -3.722195,16.1463 H 80.45928 c 0.113959,-7.5044 1.835597,-14.7439 4.990278,-21.334 l -1.388902,-0.75 c -3.227973,6.7033 -5.084366,14.1855 -5.202278,22.084 H 66.856754 c 0.11805,-9.8009 2.40824,-19.2447 6.617227,-27.8043 l -1.394233,-0.7524 c -4.375277,8.862 -6.845379,18.8252 -6.845379,29.3586 0,6.4432 0.920161,12.7406 2.677984,18.7561 l 1.571788,-0.3954 c -1.652712,-5.6371 -2.40177,-11.377 -2.627306,-17.5584 h 11.999604 c 0.07397,5.0266 0.848404,9.9382 2.270015,14.6272 l 1.55604,-0.3923 c -1.391729,-4.5618 -2.148186,-9.3425 -2.223416,-14.2351 h 10.865707 c 0.07839,3.9851 0.7357,7.8735 1.919024,11.5741 l 1.558584,-0.3933 c -1.153765,-3.5723 -1.79562,-7.3299 -1.873676,-11.1806 h 11.999203 c 0.0837,2.8498 0.61072,5.6231 1.54408,8.2426 l 1.55952,-0.3938 c -0.90442,-2.4911 -1.41628,-5.1329 -1.50096,-7.8486 h 10.88629 c 0.17976,3.2772 1.44936,6.3444 3.64002,8.7889 l -7.69701,7.6975 c -2.37452,-2.5272 -4.17216,-5.4591 -5.32867,-8.6378 l -1.55951,0.3938 c 1.23182,3.454 3.17317,6.6414 5.75428,9.3772 l -8.48403,8.4849 c -4.126935,-4.2966 -7.147431,-9.3886 -8.936307,-14.9208 l -1.558583,0.3932 c 1.857645,5.8092 5.025006,11.1532 9.36475,15.6638 l -7.684095,7.6845 c -5.74621,-5.9256 -9.896564,-12.9943 -12.241486,-20.688 l -1.556039,0.3922 c 2.416395,7.97 6.710102,15.2951 12.663466,21.429 l -8.484441,8.4848 c -7.509243,-7.6942 -12.87264,-16.9289 -15.821258,-26.9821 l -1.571788,0.3953 c 3.092898,10.5843 8.799009,20.2862 16.813821,28.2994 5.427603,5.4288 11.631329,9.7984 18.35678,13.0185 l 0.68835,-1.7908 c -6.689495,-4.0062 -11.496627,-7.0132 -17.332049,-11.8075 l 8.484038,-8.4836 c 4.4096,4.28 9.437841,7.6929 14.874721,10.1792 l 0.79172,-1.4044 c -5.31293,-2.411 -10.22648,-5.7348 -14.531494,-9.9083 l 7.683284,-7.6836 c 3.60102,3.4643 7.73578,6.1803 12.21322,8.0827 l 0.7911,-1.4019 c -4.34902,-1.8252 -8.37097,-4.45 -11.86796,-7.8097 l 8.48525,-8.4849 c 2.72648,2.5723 5.90046,4.5094 9.34133,5.7418 l 0.8018,-1.4201 c -3.32113,-1.1499 -6.38423,-2.989 -9.00899,-5.455 l 7.69701,-7.6978 c 2.44475,2.1926 5.51039,3.4619 8.78892,3.6416 v 10.8863 c -2.582,-0.08 -5.09608,-0.5515 -7.47694,-1.3744 l -0.8018,1.4201 c 2.63017,0.9434 5.41428,1.4727 8.2789,1.5571 v 11.9982 c -4.96524,-0.099 -9.77623,-1.1272 -14.23388,-2.9972 l -0.7911,1.4018 c 4.70074,1.9981 9.77824,3.0981 15.02493,3.1994 v 10.8661 c -7.14984,-0.1102 -14.05498,-1.6817 -20.38995,-4.5562 l -0.79171,1.4043 c 6.57604,3.0048 13.75214,4.6443 21.18182,4.7553 v 11.998 c -9.5307,-0.1145 -18.35038,-2.3292 -26.72177,-6.3172 l -1.17471,1.4667 c 8.84706,4.2347 18.59946,6.4734 28.69833,6.4734 10.59355,0 20.80023,-2.4753 29.9865,-7.1232 l -0.75868,-1.4713 c -8.56682,4.3384 -18.211,6.8462 -28.42698,6.9717 v -11.9984 c 8.10001,-0.1196 15.89718,-2.0613 22.94203,-5.6049 l -0.7489,-1.4518 c -6.69637,3.3725 -14.22298,5.3286 -22.19297,5.4527 v -10.8662 c 6.07734,-0.1171 11.92652,-1.5752 17.2253,-4.2182 l -0.7445,-1.4449 c -4.98503,2.4863 -10.56971,3.9388 -16.48068,4.0595 v -11.9984 c 3.87047,-0.1134 7.59647,-1.0448 10.98766,-2.7047 l -0.73946,-1.4365 c -3.11462,1.5202 -6.58249,2.4217 -10.24868,2.5376 v -10.8847 c 3.27801,-0.1797 6.34425,-1.449 8.79053,-3.6416 l 7.68894,7.6897 c -1.84097,1.728 -3.93974,3.1805 -6.23079,4.2994 l 0.73946,1.4364 c 2.40222,-1.1764 4.63896,-2.7133 6.63297,-4.5942 l 8.47112,8.4716 c -2.82816,2.717 -6.06885,5.0003 -9.61147,6.7662 l 0.7445,1.445 c 3.63344,-1.8114 7.01094,-4.175 10.01407,-7.0634 l 7.66673,7.6659 c -3.7348,3.6221 -8.02168,6.6701 -12.71273,9.0295 l 0.7489,1.4519 c 4.76374,-2.3953 9.18587,-5.516 13.11412,-9.3304 l 8.46345,8.4635 c -5.31619,4.1763 -10.15056,8.4896 -16.09222,11.4976 l 0.75868,1.4713 c 6.22634,-3.1505 11.99032,-7.2896 17.06903,-12.3686 5.33916,-5.338 9.64741,-11.4299 12.85124,-18.0281 z"
         id="path51"
         sodipodi:nodetypes="ccccccccccccccccccccccccccccccccscccccccccccccccccccccccccccccccccccccccccccccccccccccccccccccccccsccccccccccccccccccscsscscccccccccccccccccccccccccccccccccccccccccccccccccccscccccccccccccccccccccccccccccccccccccccccccccccccccccccccccccccccsccccccccccccccccccccccccccccccccccc" />
      <polygon
         style="fill:#ffffff;fill-opacity:1"
         points="524.04,216.67 522.77,216.72 522.83,218.22 524.11,218.16 "
         transform="matrix(0.31636053,0,0,0.32107299,-30.193999,1190.8918)"
         id="polygon59" />
      <rect
         style="fill:#ffffff;fill-opacity:1;stroke-width:1.06666672"
         x="134.60066"
         y="1259.8181"
         width="0.5362187"
         height="0.40873602"
         id="rect61" />
      <polygon
         style="fill:#ffffff;fill-opacity:1"
         points="517.85,214.23 519.34,214.45 519.52,213.19 518.03,212.98 "
         transform="matrix(0.31636053,0,0,0.32107299,-30.193999,1190.8918)"
         id="polygon63" />
      <rect
         style="fill:#ffffff;fill-opacity:1;stroke-width:1.06666672"
         x="-306.98315"
         y="-1227.532"
         width="0.4734244"
         height="0.40926233"
         transform="matrix(-0.98971393,-0.14306057,0.13896953,-0.99029666,0,0)"
         id="rect65" />
      <rect
         style="fill:#ffffff;fill-opacity:1;stroke-width:1.06666672"
         x="129.36731"
         y="1258.9983"
         width="0.5362187"
         height="0.40905905"
         id="rect67" />
      <polygon
         style="fill:#ffffff;fill-opacity:1"
         points="500.67,214.66 502.15,214.87 502.33,213.61 500.85,213.4 "
         transform="matrix(0.31636053,0,0,0.32107299,-30.193999,1190.8918)"
         id="polygon69" />
      <rect
         style="fill:#ffffff;fill-opacity:1;stroke-width:1.06666672"
         x="-426.45999"
         y="-1190.0383"
         width="0.55503559"
         height="0.40837097"
         transform="matrix(-0.96919103,-0.24631027,0.23955095,-0.97088379,0,0)"
         id="rect71" />
      <rect
         style="fill:#ffffff;fill-opacity:1;stroke-width:1.06666672"
         x="-1264.6034"
         y="-77.462151"
         width="0.41435117"
         height="0.40322152"
         transform="matrix(-0.16105913,-0.98694476,0.98616623,-0.16575936,0,0)"
         id="rect73" />
      <polygon
         style="fill:#ffffff;fill-opacity:1"
         points="330.58,347.28 330.58,346.22 329.52,346.22 329.52,348.34 331.22,348.34 331.22,351.1 332.5,351.1 332.28,347.92 "
         transform="matrix(0.31636053,0,0,0.32107299,-30.193999,1190.8918)"
         id="polygon75" />
      <polygon
         style="fill:#ffffff;fill-opacity:1"
         points="344.38,360.43 345.86,361.5 347.35,364.68 346.5,366.16 344.17,364.04 342.47,361.71 341.62,359.8 340.13,355.98 343.31,357.46 "
         transform="matrix(0.31636053,0,0,0.32107299,-30.193999,1190.8918)"
         id="polygon77" />
      <polygon
         style="fill:#ffffff;fill-opacity:1"
         points="390.42,423.03 390.21,421.12 388.51,418.57 391.06,419 393.81,421.33 394.88,424.09 393.39,424.94 392.54,423.67 "
         transform="matrix(0.31636053,0,0,0.32107299,-30.193999,1190.8918)"
         id="polygon79" />
      <path
         style="fill:#ffffff;fill-opacity:1;stroke-width:1.06666672"
         d="m 129.70246,1264.8576 h -0.73809 l -0.13445,-1.4985 0.40273,-0.2736 v -0.749 h -2.34961 l -0.0671,-0.7488 0.3366,-0.2044 -0.53779,-0.2046 -0.40304,0.5445 -0.13318,0.6133 -0.67162,0.1368 v 0.34 h -0.46947 v 0.8855 l -1.88014,1.5669 -3.75865,-0.1355 c -0.26954,0.6126 -0.94117,-0.069 -0.94117,-0.069 -0.13318,-0.4083 -1.07243,0 -1.07243,0 0,0.7504 -1.27556,-0.3399 -1.27556,-0.3399 l -2.34993,-1.7037 c -1.3423,-1.2262 -3.35593,0.3413 -3.42268,0.6813 0.0668,0.9539 -1.54386,0.2045 -1.54386,0.2045 0,0 -1.34229,-0.4084 -1.54416,0.1368 -0.20088,0.5445 -1.07498,0.4091 -1.07498,0.4091 l -0.13445,0.2723 -0.67162,0.1361 -0.13319,0.4084 -0.80608,0.1368 2.01331,-0.068 c 0.53751,-0.068 -0.20183,1.1584 -0.53654,1.0903 l -0.93894,0.068 -0.33661,0.3401 h -0.87251 l -0.4024,0.5461 -1.27463,-0.068 c 0,0 -0.73933,0.6129 -0.67129,0.8172 0.0671,0.2045 -0.13445,0.8178 -0.33629,0.8178 -0.20153,0 -0.60426,0.6129 -0.4698,0.8171 0.13509,0.2046 -0.40241,0.8858 -0.40241,0.8858 l -0.133813,0.682 -0.402408,0.1355 v 1.8397 l -0.806085,0.5452 v 0.8172 l -1.209127,1.2946 0.135083,1.0894 -1.006334,1.0903 0.133188,1.09 -0.603937,0.2046 -0.133504,0.4767 -0.268271,1.4301 0.671011,0.069 c 0.334705,-0.1367 0.26827,0.8856 0,1.021 -0.269539,0.1368 -1.007909,0.4088 -0.604261,0.681 0.403042,0.2736 -1.074376,0.2049 -1.074376,-0.2042 0,-0.4077 -0.805761,-0.7491 -1.006333,-0.6122 -0.201836,0.1354 -0.537794,-0.6134 -0.537794,-0.6134 -0.738083,-0.749 -3.020576,0.067 -3.020576,0.067 l -0.336603,1.0902 c -0.737437,0.1367 -1.207229,1.3629 -1.207229,1.3629 -0.60426,0.2045 -1.074052,0.9532 -0.872511,1.1578 0.200886,0.2045 -0.336608,0.2722 -0.336608,0.2722 v 1.4995 l -0.335025,0.4768 0.06643,1.6345 c 0.403357,0 0.336608,0.7501 0.336608,0.7501 -0.671616,0.067 -0.538117,0.9539 -0.538117,0.9539 l -1.409053,0.4765 -0.268271,0.4084 -1.745022,-0.068 -0.469792,0.4773 -0.471044,-0.4773 h -3.356223 l -0.133188,-0.3404 -0.671616,-0.1371 -0.0677,-0.7488 -1.006334,0.067 -0.201202,0.4088 -1.074658,0.067 c 0.06707,0.6817 -1.074052,1.704 -1.207229,1.432 -0.136035,-0.2729 -0.873763,-1.0233 -0.537511,-1.1581 0.335974,-0.1371 1.209127,-0.2739 1.209127,-0.2739 v -0.4765 l -2.48468,-0.067 -0.267641,0.409 -1.008232,0.067 v 1.0905 l -0.469146,0.1364 c -0.336288,0.2035 0.06644,0.9539 0.06644,0.9539 0.469792,0.4762 -0.06644,1.2252 -0.06644,1.2252 -0.403357,0.4091 0.334709,1.1595 0.334709,1.1595 0.537795,0.1351 -0.334709,0.5442 -0.334709,0.5442 0.133188,0.681 0.536542,0.8854 0.536542,0.8854 -0.403357,0.6811 0.269539,1.0211 0.269539,1.0211 l 0.06643,1.1594 0.469792,0.2729 v 0.7478 l 0.268275,0.4773 h 1.074053 l -0.06706,-1.7029 c -0.94023,-1.0903 0.804833,-1.363 0.873158,-0.9549 0.0677,0.4091 0.805762,0.6136 0.805762,0.6136 0.134452,1.0223 1.275876,1.6345 1.610594,0.6138 0.335973,-1.0232 0.60426,-0.409 0.805761,0.067 0.201521,0.4775 1.475479,1.636 1.475479,1.636 h 1.007587 l 0.135081,0.9539 c 1.140803,-0.068 1.47552,0.069 1.945312,1.6346 0.471044,1.5662 1.745669,1.9752 1.745669,1.9752 l 0.94023,-0.068 c 0,-0.8163 0.939907,0.1377 0.939907,0.5467 0,0.4072 1.812096,1.9743 1.812096,1.9743 l 1.811772,0.408 1.68017,1.3643 1.274302,-0.1364 h 0.537793 c 0.334706,-1.1594 1.946565,0.067 2.079741,0.4761 0.135402,0.4091 1.209127,1.0904 1.342303,0.749 0.135083,-0.3399 0.873157,-0.1351 1.007908,0.8856 0.133823,1.0232 0.602969,0.8184 0.602969,0.8184 l 3.826982,-0.068 1.34231,-1.1594 3.42394,-0.067 c 1.74502,-0.068 0.671,-2.453 0.33628,-2.453 -0.60425,-0.4762 0.20058,-2.4521 0.20058,-2.4521 l -4.90023,-4.5642 c -1.1408,0 -0.13445,-1.6359 -0.13445,-1.6359 0.87251,-0.5455 -0.20184,-1.4297 -0.20184,-1.4297 0.13508,-0.8187 -0.46979,-1.7723 -0.46979,-1.7723 -1.20723,-0.8175 -0.87251,-2.3849 -0.87251,-2.3849 v -1.0904 c -1.006337,-0.9526 0.40304,-1.0903 0.40304,-1.0903 0.46914,-0.8159 -0.33629,-1.4295 -0.33629,-1.4295 l -0.0668,-0.8858 -1.074371,-0.1368 -0.133189,-3.202 -2.416355,-3.4737 c -0.471044,-0.1375 -0.135087,-0.9539 -0.135087,-0.9539 0.60426,-0.3411 -0.135086,-1.1576 -0.135086,-1.1576 l -0.06675,-1.4991 1.409053,-0.1371 0.336288,-0.5442 h 0.67101 l -0.06675,-1.7716 c 0.335024,-0.8855 1.140477,-0.4091 1.140477,-0.4091 l 0.93991,0.068 0.53751,-1.022 0.13318,-0.8178 -0.73743,-0.067 c -0.80576,-0.4774 -0.40304,-2.2482 -0.40304,-2.2482 1.27555,-1.9082 2.75135,-0.818 2.75135,-0.818 l 0.94084,-0.067 c 1.40905,0.9533 0.13319,2.7246 0.13319,2.7246 -0.26828,0.409 -0.13319,1.7033 -0.13319,1.7033 l 0.33502,2.1791 -0.87251,0.7503 c -0.73808,0.4091 -0.73808,1.3624 0.0677,1.5668 0.53654,0.067 0.33503,1.3624 -0.47076,0.4766 -1.20723,0 0.67259,1.0901 0.13509,0.8165 1.2088,0.6136 0.93893,-0.5446 0.93893,-0.5446 l 1.6125,-1.2945 c 0.60426,-0.4766 1.67859,1.0226 1.67859,1.2271 0,0.2042 2.68461,0.067 2.68461,0.067 0.73808,0.4768 1.00632,1.7037 1.00632,1.7037 0.73934,-0.9546 2.28254,-0.069 1.14174,0.4765 1.07308,0.6812 1.07308,1.2942 1.07308,1.2942 0.87377,-0.2723 0.87377,0.4087 0.87377,0.6133 0,0.2045 0.26827,-1.0217 0.26827,-1.0217 -1.00698,-0.7497 1.3423,-1.0219 0.67161,0.3407 l -0.40336,0.6136 0.67162,0.5445 0.0665,1.5675 c 1.47739,-0.1368 1.07438,-1.9766 1.07438,-1.9766 l 0.6713,-0.1354 c 0,-0.6137 0.46914,-0.273 0.46914,-0.273 -0.46914,-2.3168 1.07466,-2.7246 1.07466,-2.7246 0.87251,-0.2045 0.93926,-2.0449 0.93926,-2.0449 -0.60297,-0.2723 -0.26859,-1.2256 0.40304,-0.4074 0.67069,0.8162 -0.40304,-1.6362 -0.40304,-1.6362 l -0.53654,-0.4766 -0.73808,-0.068 -0.0677,-0.7493 h -1.20723 l -0.20183,0.9542 -0.4698,0.1362 -0.13508,-0.2729 -0.20088,0.7493 h -1.20789 l -0.0668,-0.8175 0.73808,-0.2041 0.2686,-0.4088 0.20088,-1.0903 h 0.87315 l 1.14081,-0.3401 c 0.0665,-1.1584 0.67129,-0.8855 0.67129,-0.8855 l 0.40242,0.3404 0.60426,0.4768 0.0674,0.4081 -0.40336,0.2041 -0.0665,0.5458 0.20152,0.7492 h 0.53655 c 0.2012,-1.0901 1.61184,-1.0901 2.01424,-0.4088 l 0.40304,-0.9536 c -0.93959,-0.4768 -0.0174,-1.2268 0.25087,-0.8859 0.26827,0.3411 0.88992,-0.8854 0.88992,-0.8854 0,0 0.46979,0.6132 0,-0.2046 -0.4698,-0.8178 0.33501,-1.2261 0.33501,-1.2261 -0.1335,-0.8172 0.87317,-0.6813 0.87317,-0.6813 l 0.0677,-1.0895 -0.94083,-0.069 c -0.19995,0.9539 -1.00602,0.1368 -0.6033,-0.067 0.40336,-0.2048 0.80483,-0.6136 0.80483,-0.6136 v -0.6814 l 0.40304,-0.1361 0.0668,-0.6812 h 1.00758 l 0.87251,-0.4085 0.20184,-0.341 0.93894,-0.067 1.34231,-1.2268 -0.13319,-0.5445 c -0.80577,0 0,-0.6132 0,-0.6132 l 0.13256,-1.0199 z"
         id="path81"
         inkscape:connector-curvature="0" />
      <path
         style="fill:#ffffff;fill-opacity:1;stroke-width:1.06666672"
         d="m 102.65126,1278.3449 -1.20848,-0.1363 0.0677,0.4766 h 0.33502 c 0.53654,0.9543 0.0674,3.2701 0.0674,3.2701 0,0 -0.80483,0.067 -0.93991,-0.3404 -0.13318,-0.4087 -0.46979,0.8859 -0.20152,1.0905 0.26827,0.2032 1.20881,0 1.27556,0.7496 0.0664,0.7488 0.60426,-0.4774 0.60426,-0.4774 v -4.6329 z"
         id="path83"
         inkscape:connector-curvature="0" />
      <polygon
         style="fill:#ffffff;fill-opacity:1"
         points="416.09,289.57 416.09,294.66 419.49,299.11 420.76,296.14 421.19,294.23 419.7,293.6 419.91,290.42 421.19,290.2 421.4,288.71 418.21,290.84 "
         transform="matrix(0.31636053,0,0,0.32107299,-30.193999,1190.8918)"
         id="polygon85" />
      <polygon
         style="fill:#ffffff;fill-opacity:1"
         points="421.61,303.78 421.61,301.66 420.13,301.87 419.91,303.57 "
         transform="matrix(0.31636053,0,0,0.32107299,-30.193999,1190.8918)"
         id="polygon87" />
      <polygon
         style="fill:#ffffff;fill-opacity:1"
         points="419.7,313.97 419.7,312.48 417.9,312.69 417.9,314.18 "
         transform="matrix(0.31636053,0,0,0.32107299,-30.193999,1190.8918)"
         id="polygon89" />
      <path
         style="fill:#ffffff;fill-opacity:1;stroke-width:1.06666672"
         d="m 103.37408,1289.603 c 0.15723,0 0.28377,-0.1288 0.28377,-0.288 0,-0.1605 -0.12654,-0.2896 -0.28377,-0.2896 -0.15723,0 -0.28472,0.1287 -0.28472,0.2896 0,0.1592 0.12749,0.288 0.28472,0.288 z"
         id="path91"
         inkscape:connector-curvature="0" />
      <ellipse
         style="fill:#ffffff;fill-opacity:1;stroke-width:0.31870806"
         cx="103.84163"
         cy="1290.7455"
         id="circle93"
         rx="0.28472447"
         ry="0.28896567" />
      <ellipse
         style="fill:#ffffff;fill-opacity:1;stroke-width:0.31870806"
         cx="103.85745"
         cy="1282.9628"
         id="circle95"
         rx="0.28472447"
         ry="0.28896567" />
      <polygon
         style="fill:#ffffff;fill-opacity:1"
         points="489.72,269.41 492.27,268.98 493.33,267.71 493.76,265.17 493.91,263.26 494.82,261.98 497.36,260.92 497.36,256.89 496.09,256.89 495.88,255.4 493.54,255.19 493.12,256.25 492.06,256.25 491.84,257.95 493.12,257.95 493.33,259.22 492.48,260.07 492.06,261.13 490.36,261.56 486.54,265.17 486.33,266.86 485.27,268.35 484,271.53 479.54,271.74 478.69,275.56 479.32,278.74 483.14,280.23 483.57,278.11 484.84,277.47 485.06,275.35 485.9,273.86 487.18,272.38 487.6,270.68 "
         transform="matrix(0.31636053,0,0,0.32107299,-30.193999,1190.8918)"
         id="polygon97" />
      <path
         style="fill:#ffffff;fill-opacity:1;stroke-width:1.06666672"
         d="m 128.55968,1277.5292 v -0.9539 l -0.13509,-0.8859 -1.00573,-0.4765 -0.73808,0.6813 -0.13508,0.9539 v 0.6127 l -0.67101,0.1367 -0.13508,1.8392 -0.53623,0.2048 0.0671,0.6813 -0.73808,0.2042 -0.73809,0.2045 -0.13445,0.8856 -0.53621,0.3402 -0.27017,0.8178 -0.33503,1.9756 c 0,0 0.60487,1.1581 0.93991,0.6129 0.33598,-0.5445 0.87251,-0.6129 0.87251,-0.6129 l 0.20152,-0.4771 1.81242,0.068 c 0.13445,-0.7501 1.00698,-0.4765 1.00698,-0.1361 0,0.3407 0.67161,0.067 0.67161,0.067 l 0.46947,-0.7492 h 0.73776 l 0.0671,-0.817 0.33629,-0.2046 v -1.2268 c 1.07437,-0.3404 0.93893,-1.3623 0.93893,-1.3623 l 0.27017,-0.34 -0.13477,-0.4765 c -0.53779,-0.2052 -0.26985,-0.6825 0.0665,-0.5461 0.3366,0.1361 -0.46979,-0.6133 -0.46979,-0.6133 -0.40241,0.3413 -0.73744,-0.4083 -0.73744,-0.4083 h -1.0079 z"
         id="path99"
         inkscape:connector-curvature="0" />
      <path
         style="fill:#ffffff;fill-opacity:1;stroke-width:1.06666672"
         d="m 129.63381,1285.7709 c -0.0668,0.8172 -1.07433,1.09 -1.07433,1.09 l -0.73808,-0.2042 -0.40241,-0.3406 -0.0674,-0.9543 0.60361,-0.067 0.13445,0.4091 1.54417,0.067 z"
         id="path101"
         inkscape:connector-curvature="0" />
      <path
         style="fill:#ffffff;fill-opacity:1;stroke-width:1.06666672"
         d="m 133.26002,1281.4138 c 0.14521,0.594 0.13319,-0.9549 0.40178,-0.8859 0.26827,0.068 0.0677,-0.9533 0.0677,-0.9533 l -1.20848,0.8843 c 0.60393,0.069 0.67068,0.6825 0.73901,0.9549 z"
         id="path103"
         inkscape:connector-curvature="0" />
      <path
         style="fill:#ffffff;fill-opacity:1;stroke-width:1.06666672"
         d="m 136.81758,1277.8684 c 0.26828,0.6135 0.20184,1.4994 1.20723,2.1807 0.34009,0.2295 -0.2012,0.6812 -0.53751,0.4764 -0.33502,-0.2041 -1.27398,-1.7035 -1.27398,-1.7035 v -0.8856 c 0.20121,-0.5445 0.4878,-0.332 0.60426,-0.068 z"
         id="path105"
         inkscape:connector-curvature="0" />
      <polygon
         style="fill:#ffffff;fill-opacity:1"
         points="527.92,335.4 528.55,336.03 529.18,337.09 530.67,334.76 529.4,334.33 "
         transform="matrix(0.31636053,0,0,0.32107299,-30.193999,1190.8918)"
         id="polygon107" />
      <line
         style="fill:#ffffff;fill-opacity:1;stroke-width:1.06666672"
         x1="135.13774"
         y1="1297.4895"
         x2="135.13774"
         y2="1298.3091"
         id="line109" />
      <polygon
         style="fill:#ffffff;fill-opacity:1"
         points="553.29,328.93 554.99,327.87 554.31,326.8 552.62,327.85 "
         transform="matrix(0.31636053,0,0,0.32107299,-30.193999,1190.8918)"
         id="polygon111" />
      <path
         style="fill:#ffffff;fill-opacity:1;stroke-width:1.06666672"
         d="m 164.2726,1310.7061 0.60486,0.2716 0.0664,1.1582 c 0.80608,0.8175 3.42394,0.1364 3.42394,-0.068 0,-0.2049 -0.13507,-2.5204 -0.13507,-2.5204 l -0.3363,-0.341 -0.0665,-1.7042 c 0.26827,-0.8856 -1.27589,-2.1801 -1.4097,-1.9063 -0.13445,0.2717 -1.00699,0.067 -1.00699,0.3401 0,0.2716 -0.53621,1.6345 -0.26826,2.112 0.26826,0.4771 -0.20184,0.4771 -0.26828,0.9536 -0.0668,0.4768 -0.73869,1.2955 -0.60426,1.7045 z"
         id="path113"
         inkscape:connector-curvature="0" />
      <path
         style="fill:#ffffff;fill-opacity:1;stroke-width:1.06666672"
         d="m 162.79465,1307.9804 c -0.12717,0.5162 -0.60297,0.8175 -0.87126,0.6127 -0.27017,-0.2049 0.33376,0.3399 0.46914,0.6138 0.13383,0.2716 0.53623,0.2716 0.6713,0 0.13318,-0.2742 0.0668,-0.8855 0.20183,-1.1582 0.1332,-0.2728 -0.40336,-0.3409 -0.47104,-0.068 z"
         id="path115"
         inkscape:connector-curvature="0" />
      <rect
         style="fill:#ffffff;fill-opacity:1;stroke-width:1.06666672"
         x="159.6732"
         y="1295.4825"
         width="0.46914589"
         height="1.294896"
         id="rect117" />
      <path
         style="fill:#ffffff;fill-opacity:1;stroke-width:1.06666672"
         d="m 166.62276,1282.3667 c -0.29295,-0.3968 1.34231,-1.09 1.61059,-0.2722 0.26828,0.8165 0,0.6813 -0.26826,0.6132 -0.26923,-0.068 -0.93927,0.2037 -1.34231,-0.3409 z"
         id="path119"
         inkscape:connector-curvature="0" />
      <polygon
         style="fill:#ffffff;fill-opacity:1"
         points="626.69,256.48 626.47,257.73 628.8,258.15 629.03,256.9 "
         transform="matrix(0.31636053,0,0,0.32107299,-30.193999,1190.8918)"
         id="polygon123" />
      <polygon
         style="fill:#ffffff;fill-opacity:1"
         points="617.12,259.76 618.82,260.82 619.14,261.02 619.46,260.84 620.74,260.13 620.9,260.52 622.08,260.05 621.65,258.99 621.38,258.32 620.75,258.67 619.17,259.55 617.79,258.69 "
         transform="matrix(0.31636053,0,0,0.32107299,-30.193999,1190.8918)"
         id="polygon125" />
      <path
         style="fill:#ffffff;fill-opacity:1;stroke-width:1.06666672"
         d="m 168.70238,1257.8394 h -1.00759 c 0,0 0.33598,0.1361 -0.60296,-0.7497 -0.94116,-0.8855 -1.54417,0.2045 -1.54417,0.2045 l -1.07405,0.1361 v 1.09 l -0.53779,0.2043 0.068,0.6816 0.73809,-0.067 c 0,0 0,0.8172 0.20152,0.4768 0.20183,-0.341 1.88014,0.067 1.74534,0.8854 -0.0547,0.3359 1.67892,1.2256 1.47738,2.3157 0.87251,0.1367 0.67129,1.0226 0.67129,1.0226 l 1.14048,0.1361 0.33629,-0.6813 0.33502,0.068 v -0.4091 l -0.73933,-0.2042 -0.13319,-2.1804 -0.46979,-0.3406 0.13382,-0.5452 -0.53654,-0.2046 0.26858,-0.8855 -0.47044,-0.9532 z"
         id="path127"
         inkscape:connector-curvature="0" />
      <path
         style="fill:#ffffff;fill-opacity:1;stroke-width:1.06666672"
         d="m 171.65423,1264.7889 -0.53654,-0.067 -1.21005,0.2043 -0.66972,1.2942 c 0,0 0.33502,0.2045 0.60297,0.6812 0.26827,0.4775 0.40304,3.2699 -0.40242,3.7473 -0.80483,0.4772 0.0677,0.2036 0.0677,0.2036 l -0.13508,1.4992 c 0.20183,0.6812 0.53654,0.3412 0.73808,0 0.2031,-0.3398 0.40461,-0.4081 0.6729,-0.7488 0.26828,-0.3414 0.67069,-0.954 0.73809,-1.4314 0.0665,-0.4765 0.4024,-1.2255 0.20089,-1.4301 -0.20089,-0.2045 0.20183,-1.1577 0.20183,-1.1577 0,0 0.26828,-0.5458 0,-1.0904 -0.26827,-0.5455 0.0668,-1.1585 0.26828,-1.4313 l -0.53686,-0.2726 z"
         id="path129"
         inkscape:connector-curvature="0" />
      <rect
         style="fill:#ffffff;fill-opacity:1;stroke-width:1.06666672"
         x="-1234.886"
         y="329.40005"
         width="0.54954267"
         height="0.4037523"
         transform="matrix(0.12487037,-0.99217306,0.99170171,0.12856021,0,0)"
         id="rect133" />
      <rect
         style="fill:#ffffff;fill-opacity:1;stroke-width:1.06666672"
         x="-716.45953"
         y="-1053.5886"
         width="0.40296978"
         height="0.45553601"
         transform="matrix(-0.89144962,-0.45311982,0.44253146,-0.89675298,0,0)"
         id="rect135" />
      <path
         style="fill:#ffffff;fill-opacity:1;stroke-width:1.06666672"
         d="m 171.85614,1264.0419 -0.26955,-0.6136 c 0,0 0,-0.5442 0.13446,-0.8178 0.13509,-0.2723 -0.26827,-0.5443 -0.46915,-0.6126 -0.20152,-0.068 -0.13382,-0.6129 -0.20152,-0.8859 -0.0668,-0.2722 -0.53621,-0.4765 -0.53621,-0.4765 0,0 -0.13541,-1.022 -0.13541,-1.2261 0,-0.2045 -0.60393,-0.4768 -0.40241,-0.6816 0.20184,-0.2043 0.33629,-0.4765 0.53779,-0.6133 0.20153,-0.1362 -0.20183,-1.0901 0.1332,-0.8858 0.33629,0.2048 0.33629,0.5452 0.47076,0.8177 0.13381,0.2723 -0.0677,1.2266 0.26859,1.431 0.33471,0.204 -0.0681,0.8849 0.46947,0.8849 0.53653,0 0.20183,1.295 0.20183,1.295 0,0 -0.13509,0.9532 0.19994,1.0218 0.33629,0.068 0.13508,1.7031 0.13508,1.7031 l -0.53686,-0.3404 z"
         id="path137"
         inkscape:connector-curvature="0" />
      <path
         style="fill:#ffffff;fill-opacity:1;stroke-width:1.06666672"
         d="m 167.495,1253.0017 c 0.20056,0.2723 0.6036,0.4765 0.6036,0.7498 0,0.2728 -0.13381,0.4764 0.26955,0.5448 0.40177,0.067 0.67101,-0.068 0.80483,0.2722 0.13445,0.3404 0.13445,0.8856 0.0677,1.1582 -0.0677,0.2729 0.0668,0.6813 0.40178,0.6813 0.33628,0 0.40304,0.068 0.40304,0.273 0,0.2038 0.40304,-0.7501 0.40304,-0.7501 -0.3366,-0.2722 -0.60487,-0.8859 -0.60487,-0.8859 0,0 -0.33502,-0.9536 -0.33502,-1.0897 0,-0.1361 -0.46947,-0.2728 -0.67069,-0.3406 -0.20183,-0.068 -0.53812,-0.681 -0.53812,-0.681 l -0.80483,0.068 z"
         id="path139"
         inkscape:connector-curvature="0" />
      <path
         style="fill:#ffffff;fill-opacity:1;stroke-width:1.06666672"
         d="m 168.16531,1252.392 c -0.20183,-0.2733 -0.40335,-0.4774 -0.67161,-0.6129 -0.26764,-0.1369 -0.46915,-0.273 -0.73869,-0.273 -0.26827,0 -0.53622,-0.2729 -0.40304,-0.6129 0.13508,-0.341 -0.20184,-0.4771 -0.20184,-0.7501 0,-0.2723 0.20184,-0.2723 0.5378,-0.067 0.33628,0.2045 0.26827,0.2723 0.53812,0.6136 0.26762,0.3404 0.40145,0.6811 0.66943,0.6127 0.26985,-0.068 0.47104,0.6129 0.73934,0.4087 0.26826,-0.2042 0.20183,0.4767 0.20183,0.4767 l -0.6713,0.2049 z"
         id="path141"
         inkscape:connector-curvature="0" />
      <path
         style="fill:#ffffff;fill-opacity:1;stroke-width:1.06666672"
         d="m 160.31122,1260.0886 c 0.37015,0.3763 -2.01331,0.2719 -2.01331,0 0,-0.2723 0.20183,-1.2256 0.80483,-1.0226 0.60426,0.2051 0.67069,-1.2256 0.67069,-1.2256 0,0 -0.53622,0.067 -0.0665,-0.2045 0.46979,-0.2723 0,-0.6812 -0.20185,-0.8855 -0.20088,-0.2048 -0.40241,-0.5452 -0.40241,-0.5452 h 0.94055 c 0.40304,-0.2728 0.53623,-1.5668 0.53623,-1.5668 0.80483,0.2723 1.20787,-0.2729 1.20787,-0.2729 0,0 0.13635,0.4088 0.40429,0.75 0.26828,0.3401 -0.67258,0.4765 -0.3366,0.6814 0.3366,0.2045 0.46979,0.8171 0.3366,1.021 -0.13507,0.2045 -0.8744,0.068 -0.8744,-0.2039 0,-0.2729 -0.26828,0.3407 0,0.6814 0.26827,0.3405 -0.33503,0.817 -0.46979,0.817 -0.13446,0 -1.0057,0.1369 -0.26828,0.5452 0.73809,0.4084 1.5451,0.2052 1.5451,0.2052 0,0 0.60361,-0.069 0.80483,0.2722 0.20185,0.3404 -0.0668,0.4088 -0.40241,0.4088 -0.33502,0 -1.94717,-0.1368 -1.94717,-0.1368 0,0 -0.46947,0.4772 -0.26827,0.6816 z"
         id="path143"
         inkscape:connector-curvature="0" />
      <path
         style="fill:#ffffff;fill-opacity:1;stroke-width:1.06666672"
         d="m 156.01469,1260.7024 c 0.33661,-0.068 1.14048,-0.1367 1.27555,0.067 0.13508,0.2042 -0.46979,0.4765 -0.46979,0.4765 l -0.80576,0.1367 c -0.26827,-0.3409 -0.33503,-0.6129 0,-0.6809 z"
         id="path145"
         inkscape:connector-curvature="0" />
      <path
         style="fill:#ffffff;fill-opacity:1;stroke-width:1.06666672"
         d="m 164.67641,1254.9804 c 0.53653,-0.2722 1.67734,-0.2722 1.61059,-0.6813 -0.0665,-0.4088 0.67101,-0.5449 0.67101,-0.5449 l 0.20152,0.8172 0.60426,0.4088 0.0674,0.7493 c 0,0 0.2009,-0.1361 -0.53653,0.068 -0.73934,0.2045 -0.26828,0.5445 -0.26828,0.5445 l -1.61184,0.068 -0.20153,-0.6813 -0.53654,-0.7487 z"
         id="path147"
         inkscape:connector-curvature="0" />
      <path
         style="fill:#ffffff;fill-opacity:1;stroke-width:1.06666672"
         d="m 162.05568,1251.3017 c 0.40809,0 -0.13319,1.5668 0.93926,1.4307 1.07437,-0.1368 0.0684,0.4768 0.87316,0.5445 0.80576,0.069 0.60425,-0.6129 0.87251,-1.0894 0.26953,-0.4768 0.13508,-0.7496 -0.33503,-0.8858 -0.47104,-0.1362 -0.47104,-0.1362 -0.60426,-0.682 -0.13382,-0.5445 -0.67129,-0.6812 -0.67129,-0.6812 l -0.20184,-0.8169 -0.87251,0.5445 -0.87251,1.1582 c 0,0.8864 0.46947,0.4774 0.87251,0.4774 z"
         id="path149"
         inkscape:connector-curvature="0" />
      <rect
         style="fill:#ffffff;fill-opacity:1;stroke-width:1.06666672"
         x="-1046.4739"
         y="703.20734"
         width="0.45589954"
         height="0.40489987"
         transform="matrix(0.44249136,-0.89677277,0.89146989,0.45307994,0,0)"
         id="rect153" />
      <rect
         style="fill:#ffffff;fill-opacity:1;stroke-width:1.06666672"
         x="163.12982"
         y="1256.4099"
         width="0.40304229"
         height="0.47677788"
         id="rect155" />
      <rect
         style="fill:#ffffff;fill-opacity:1;stroke-width:1.06666672"
         x="1257.8229"
         y="-25.549013"
         width="0.61637741"
         height="0.40280789"
         transform="matrix(0.10977955,0.99395596,-0.99359043,0.11304004,0,0)"
         id="rect157" />
      <rect
         style="fill:#ffffff;fill-opacity:1;stroke-width:1.06666672"
         x="162.32623"
         y="1253.6841"
         width="0.40304229"
         height="0.34129983"
         id="rect159" />
      <rect
         style="fill:#ffffff;fill-opacity:1;stroke-width:1.06666672"
         x="-1263.5092"
         y="39.320168"
         width="0.40902013"
         height="0.67460221"
         transform="matrix(-0.09667066,-0.99531642,0.99503303,-0.0995453,0,0)"
         id="rect161" />
      <rect
         style="fill:#ffffff;fill-opacity:1;stroke-width:1.06666672"
         x="-634.78015"
         y="-1092.9733"
         width="0.40240881"
         height="0.51768583"
         transform="matrix(-0.9166288,-0.39973947,0.38987845,-0.92086633,0,0)"
         id="rect163" />
      <rect
         style="fill:#ffffff;fill-opacity:1;stroke-width:1.06666672"
         x="-1268.0392"
         y="30.949224"
         width="0.40805054"
         height="0.67557138"
         transform="matrix(-0.09686575,-0.99529746,0.9950129,-0.0997463,0,0)"
         id="rect165" />
      <polygon
         style="fill:#ffffff;fill-opacity:1"
         points="544.22,211.7 539.56,211.91 539.62,213.18 544.28,212.97 "
         transform="matrix(0.31636053,0,0,0.32107299,-30.193999,1190.8918)"
         id="polygon169" />
      <rect
         style="fill:#ffffff;fill-opacity:1;stroke-width:1.06666672"
         x="-1259.4044"
         y="-132.31648"
         width="0.62691361"
         height="0.40363204"
         transform="matrix(-0.21328022,-0.97699107,0.97563952,-0.21937989,0,0)"
         id="rect171" />
      <rect
         style="fill:#ffffff;fill-opacity:1;stroke-width:1.06666672"
         x="-1238.1344"
         y="-260.70615"
         width="0.40813091"
         height="0.21227406"
         transform="matrix(-0.31191952,-0.95010853,0.94730237,-0.32034079,0,0)"
         id="rect173" />
      <path
         style="fill:#ffffff;fill-opacity:1;stroke-width:1.06666672"
         d="m 142.58802,1258.7278 -0.0668,0.4768 0.73743,0.068 c 0,0 0.33503,0.2728 0.33503,0.4764 0,0.2045 0.47104,0.4088 0.73934,0.4088 0.26826,0 1.00632,-0.5452 1.00632,-0.5452 0,0 0.3363,-0.9539 0.068,-0.8859 -0.26953,0.067 -0.80608,0.4768 -0.87251,0.067 -0.068,-0.4087 -0.87251,-0.2044 -0.87251,-0.2044 l -1.07437,0.1373 z"
         id="path175"
         inkscape:connector-curvature="0" />
      <path
         style="fill:#ffffff;fill-opacity:1;stroke-width:1.06666672"
         d="m 145.94368,1257.9766 c 0,0.204 -0.13319,0.4765 0.26827,0.5452 0.40462,0.067 1.1427,-0.2722 1.20913,0.1362 0.068,0.4085 0.068,0.6819 0.60425,0.8864 0.53623,0.204 0.87317,0.2723 1.27556,0.2723 0.40178,0 1.27588,-0.137 1.27588,-0.137 0,0 0.94972,0.1486 1.14048,0.3412 0.73808,0.7491 1.20787,0.9533 1.40904,0.613 0.20153,-0.341 -0.0668,-1.0897 -0.13349,-1.3623 -0.0677,-0.2732 -1.00759,-1.5675 -1.34327,-1.2949 -0.33503,0.2729 -0.40211,0 -1.00666,0.2039 -0.60427,0.2045 -1.87982,0.069 -1.94624,-0.2039 -0.0668,-0.2729 -1.00666,-0.4081 -1.00666,-0.6813 0,-0.2729 -0.67068,-0.6129 -0.60426,-0.2045 0.0668,0.4084 -0.46948,0.6129 -0.60584,0.4774 -0.13318,-0.1365 -0.53621,0.4084 -0.53621,0.4084 z"
         id="path177"
         inkscape:connector-curvature="0" />
      <path
         style="fill:#ffffff;fill-opacity:1;stroke-width:1.06666672"
         d="m 161.38535,1249.2544 0.47077,-1.4978 c -0.67069,-0.1368 -0.53747,-0.8856 -0.53747,-0.8856 -0.0668,-0.6135 -1.00634,-1.2945 -1.34231,-1.09 -0.33503,0.2035 -0.20183,-1.4313 -0.20183,-1.4313 0,0 0.60486,-0.4082 0.87315,-0.2039 0.26859,0.2039 -2.28189,-3.4063 -2.8194,-3.0656 -0.53654,0.3406 -1.74409,-0.3407 -1.67735,-0.9542 0.0668,-0.6127 -2.41667,-2.657 -2.41667,-2.657 0,0 -0.80576,-0.5442 -0.93958,-0.1355 -0.13446,0.4085 -0.40273,0.6813 0,0.885 0.40209,0.2048 0.33501,-0.3404 0.80451,0.1361 0.46979,0.4768 1.34355,1.0903 1.00758,1.4991 -0.33597,0.4093 -0.73902,0.5454 -0.73902,0.5454 l 0.47077,0.5452 h 0.73809 l 0.13444,1.1576 c 0,0 0.80483,0.409 1.00666,0.8857 0.20152,0.4766 0.20152,0.7495 0,1.0223 -0.20184,0.2723 -0.60297,0.7491 -0.53654,1.2256 0.0668,0.4767 0.60426,0.6813 0.60426,0.6813 l 0.53622,0.068 0.40335,0.2048 v 0.8862 c 0.53623,-0.1368 1.40874,0.6119 1.34231,1.0893 -0.0668,0.4768 0.13319,0.2043 0.80451,0.6813 0.67226,0.4768 0.47104,0.5453 0.94055,0.8859 0.47011,0.3397 0.87315,0.1355 1.07309,-0.4784 z"
         id="path179"
         inkscape:connector-curvature="0" />
      <path
         style="fill:#ffffff;fill-opacity:1;stroke-width:1.06666672"
         d="m 150.30886,1239.991 c -0.0668,-0.2729 -0.20184,-1.2272 0.20152,-1.1591 0.40241,0.069 0.13445,0 0.60427,0.2049 0.46979,0.2048 0.53653,-0.3404 0.53653,-0.3404 h 0.73902 l 0.93925,0.7487 -0.13444,0.6136 -0.6713,0.067 c -0.33503,-0.5442 -1.00665,-0.34 -0.87251,0.1371 0.13445,0.4765 -0.33503,1.3624 -0.60297,1.43 -0.26859,0.068 -1.1427,0.068 -1.07437,-0.3399 0.0668,-0.4088 0.33501,-1.3624 0.33501,-1.3624 z"
         id="path181"
         inkscape:connector-curvature="0" />
      <path
         style="fill:#ffffff;fill-opacity:1;stroke-width:1.06666672"
         d="m 149.7718,1238.1497 v -0.5446 c 0,0 -0.0684,-0.5448 -0.40304,-0.5448 -0.33471,0 -0.93927,-0.4085 -0.80609,-0.6814 0.1354,-0.2729 -1.14048,-0.5452 -1.14048,-0.5452 0,0 -1.14048,-1.09 -0.73808,-0.9533 0.40304,0.1362 0.20183,-0.4774 0.20183,-0.4774 0,0 -0.80608,0.1362 -1.00758,0.068 -0.20184,-0.068 -0.13509,-0.6814 -0.13509,-0.6814 0,0 -0.80418,-0.2045 -0.80418,0 0,0.2046 0.26827,0.2046 0.40145,0.6127 0.1351,0.4084 0.0681,1.0903 0.67292,1.2261 0.60426,0.1367 0.73743,0.2722 0.80576,0.5452 0.0668,0.2729 0.80483,0.3407 0.80483,0.3407 l 0.53748,0.2722 1.61027,1.3626 z"
         id="path183"
         inkscape:connector-curvature="0" />
      <polygon
         style="fill:#ffffff;fill-opacity:1"
         points="545.95,125.55 545.32,123.85 543.62,123.43 543.62,125.34 "
         transform="matrix(0.31636053,0,0,0.32107299,-30.193999,1190.8918)"
         id="polygon185" />
      <path
         style="fill:#ffffff;fill-opacity:1;stroke-width:1.06666672"
         d="m 142.3215,1228.3411 c -0.70169,-0.5327 0.93895,0.4091 0.93895,0.4091 0.53653,0 0.87251,0.4087 0.87251,0.6135 0,0.2042 0.73836,0.1361 0.73836,0.1361 l 0.0684,-0.4774 -0.53812,-0.6813 -0.46914,-0.3396 c 0,0 -0.73809,-0.068 -0.73809,-0.273 -3.1e-4,-0.2038 -0.60458,0.8175 -0.87284,0.6126 z"
         id="path187"
         inkscape:connector-curvature="0" />
      <path
         style="fill:#ffffff;fill-opacity:1;stroke-width:1.06666672"
         d="m 154.67001,1228.7489 c -0.19615,0.5963 -0.26828,1.431 -0.60427,1.431 -0.33502,0 -0.20152,0.8866 -0.20152,0.8866 0,0 0.87408,0 1.14237,0.067 0.26764,0.067 0.26764,0.7486 0.26764,0.7486 1.00759,-0.067 1.41063,1.295 1.27556,1.6357 -0.13445,0.3402 0.40304,0.3402 0.40304,0.3402 0,0 0,1.0905 -0.13509,1.3624 -0.13319,0.2729 0.87316,0.4774 1.14141,0.8859 0.26827,0.409 -0.13509,1.7713 -0.33566,1.8394 -0.20121,0.068 0.53622,0.2722 0.46979,0.6129 -0.068,0.3414 0.20153,0 0.26828,0.5455 0.0668,0.5446 0.20183,1.7027 0.20183,1.7027 l 0.93895,0.068 c 0.13508,-0.8855 1.86555,-0.9196 2.14838,-0.8178 1.14113,0.4087 2.01489,2.18 2.01489,2.5885 0,0.4084 -0.73934,0.4774 -0.73934,0.4774 l 0.13508,1.9749 c 1.14048,0.341 2.08039,1.9766 1.94658,2.2488 -0.13446,0.2723 0.8045,0.2049 0.8045,0.2049 0.13508,-1.2272 1.27588,-0.8181 1.3423,-0.4091 0.0687,0.4091 0.2686,1.2946 0.2686,1.2946 l 0.33597,0.6123 0.46979,0.4771 0.73808,-0.068 0.20184,0.4089 0.87252,0.1369 c 0,0 0.73932,0.8164 0.80576,1.0216 0.068,0.2039 1.07436,0.1361 1.3423,0.2039 0.26827,0.068 0.67162,0.2729 0.73808,0.6132 0.068,0.341 0.47104,0.8859 0.47104,0.8859 0,0 0.80483,0.2049 0.87251,0.4768 0.0668,0.2719 0.40304,0.8855 0.40304,0.8855 l 0.66972,0.5452 0.0677,0.6135 0.73808,0.068 0.20184,0.8165 1.20723,-0.067 0.67259,-0.4767 c 0.8725,-0.4764 1.47676,-1.09 1.54416,-1.3629 0.0665,-0.2723 0.20088,-1.2936 0.87251,-1.0894 0.67069,0.2044 0.20152,-1.4991 0.20152,-1.4991 0,0 -0.93958,-0.6813 -0.87316,-1.0226 0.0674,-0.3401 -0.93893,-1.0211 -0.87251,-1.294 0.0668,-0.2729 -0.87251,-0.8171 -0.80576,-1.0897 0.0664,-0.2729 -0.46979,-1.0226 -0.46979,-1.0226 l -1.00759,-0.9533 -0.13445,-0.6136 -0.80483,-0.067 -1.6106,-1.9759 0.0668,-0.5454 -0.46979,-0.067 v -0.7492 l -0.46916,-0.2728 -0.73932,-0.068 -1.47613,-1.6347 -0.13446,-0.7496 h -0.73808 l 0.13382,-1.431 c 0.47044,-0.6133 0.2012,-1.7714 0.2012,-1.7714 0,0 -0.94055,0.4767 -1.40905,0.2723 -0.47075,-0.2036 0.20057,-0.6813 0.20057,-0.6813 v -0.5446 l -0.40209,-0.4087 c 0,0 -1.14206,0.1367 -1.20848,-0.067 -0.0674,-0.2046 -0.26827,-1.0903 -0.26827,-1.0903 l -0.0674,-1.1586 -0.46914,-0.2035 -0.0684,-0.4094 -0.73744,0.067 v -0.8171 l -0.40336,-0.1361 -0.40241,-0.2045 -0.0671,-0.8178 -1.47678,-0.067 -0.46979,-0.6814 -0.53654,-0.8177 -1.67827,-0.1361 -0.40304,-0.4081 -0.67101,-0.1368 -0.46979,-0.2046 -0.20153,0.3414 -1.27587,0.067 -0.0665,0.4087 c -0.67102,0.3407 -3.35595,0.067 -3.42427,0.2719 z"
         id="path189"
         inkscape:connector-curvature="0" />
      <path
         style="fill:#ffffff;fill-opacity:1;stroke-width:1.06666672"
         d="m 161.72051,1226.9803 c -0.10624,-0.5378 1.34356,-1.022 1.6786,-0.6137 0.33629,0.4088 1.27556,0.4781 1.41002,2.5217 0.0475,0.7319 -1.20848,-0.7493 -1.20848,-0.7493 l -1.00758,-0.3407 c -0.53655,-0.1368 -0.80576,-0.4765 -0.87252,-0.8181 z"
         id="path191"
         inkscape:connector-curvature="0" />
      <rect
         style="fill:#ffffff;fill-opacity:1;stroke-width:1.06666672"
         x="-623.7735"
         y="-1060.2122"
         width="0.40277961"
         height="0.66975838"
         transform="matrix(-0.91112044,-0.4121402,0.40209006,-0.91560012,0,0)"
         id="rect193" />
      <path
         style="fill:#ffffff;fill-opacity:1;stroke-width:1.06666672"
         d="m 138.56204,1221.121 -0.87441,-0.8859 v -0.7493 l -0.26827,-0.2733 -0.26828,-0.9533 -0.87251,-0.2722 -0.87251,0.3399 -0.93991,0.6134 -1.00633,0.137 -0.53779,0.6126 2.14838,0.2036 0.4021,0.6823 1.54542,0.1361 1.00569,1.0216 c 0.87441,0.273 1.07498,-0.1361 0.53844,-0.6125 z"
         id="path195"
         inkscape:connector-curvature="0" />
      <path
         style="fill:#ffffff;fill-opacity:1;stroke-width:1.06666672"
         d="m 138.42878,1217.7814 c -0.14773,-0.5988 -1.00759,0.7492 -0.13319,1.0211 0.87252,0.2739 1.74378,0 1.74378,0 l 0.20184,-0.4085 3.35529,0.068 c 0.27017,-0.2729 0.40304,-0.6813 0.40304,-0.6813 0,0 0.80608,-0.2728 1.1408,-0.1367 0.33629,0.1367 0.0684,-0.9533 -0.26827,-0.8172 -0.33502,0.1361 -1.00601,0.068 -1.00601,0.068 h -1.2088 c -0.0668,-0.4765 -1.1408,-0.2729 -1.20787,0 -0.0681,0.2723 -0.46916,0.3403 -0.46916,0.3403 l -1.54416,0.1368 c -0.13477,0.409 -0.93926,0.6813 -1.0073,0.409 z"
         id="path197"
         inkscape:connector-curvature="0" />
      <path
         style="fill:#ffffff;fill-opacity:1;stroke-width:1.06666672"
         d="m 131.78208,1229.278 c 1.0323,0.3274 1.40906,0.085 1.47738,-0.1872 0.0668,-0.273 0.13318,-0.3414 0.53654,-0.4088 0.40241,-0.068 -0.0674,-0.8858 -0.46979,-0.8178 -0.40336,0.068 -0.80609,-0.1361 -0.87251,-0.4768 -0.0687,-0.3403 -0.73934,-1.2261 -0.80609,-0.5445 -0.0671,0.6813 -0.4698,0.6813 -0.40304,1.1582 0.0677,0.4758 0.26922,1.1908 0.53751,1.2769 z"
         id="path199"
         inkscape:connector-curvature="0" />
      <path
         style="fill:#ffffff;fill-opacity:1;stroke-width:1.06666672"
         d="m 124.06528,1230.0451 c -0.0484,-0.241 1.3423,-0.2722 1.54417,-0.068 0.20184,0.2049 0.0668,0.5451 0.67101,0.5451 0.60328,0 0.33534,0.4091 0.26827,0.6137 -0.0668,0.2041 -0.73743,0.1361 -0.80608,-0.067 -0.0665,-0.2049 -1.07405,-0.2739 -1.07405,-0.2739 0,0 -0.53655,-0.4091 -0.6033,-0.7487 z"
         id="path201"
         inkscape:connector-curvature="0" />
      <polygon
         style="fill:#ffffff;fill-opacity:1"
         points="559.77,76.462 558.09,77.802 557.01,76.721 556.11,77.62 557.59,79.105 558,79.51 558.44,79.154 560.57,77.455 "
         transform="matrix(0.31636053,0,0,0.32107299,-30.193999,1190.8918)"
         id="polygon205" />
      <polygon
         style="fill:#ffffff;fill-opacity:1"
         points="548.07,72.599 546.71,71.752 546.04,72.832 547.74,73.89 548.07,74.105 548.41,73.89 550.75,72.403 550.07,71.33 "
         transform="matrix(0.31636053,0,0,0.32107299,-30.193999,1190.8918)"
         id="polygon207" />
      <polygon
         style="fill:#ffffff;fill-opacity:1"
         points="541.23,116.25 540.92,116.22 538.8,116 538.67,117.27 540.49,117.45 541.81,119.52 542.88,118.84 541.4,116.51 "
         transform="matrix(0.31636053,0,0,0.32107299,-30.193999,1190.8918)"
         id="polygon209" />
      <path
         style="fill:#ffffff;fill-opacity:1;stroke-width:1.06666672"
         d="m 118.82787,1247.2111 0.0687,0.7498 h 1.00572 c 0.40304,0 -0.33502,-0.4768 -0.33502,-0.4768 0,0 -0.80576,0.068 -0.73933,-0.273 z"
         id="path211"
         inkscape:connector-curvature="0" />
      <rect
         style="fill:#ffffff;fill-opacity:1;stroke-width:1.06666672"
         x="-876.79645"
         y="882.46753"
         width="0.40659723"
         height="0.52677304"
         transform="matrix(0.63290773,-0.77422723,0.76494491,0.64409571,0,0)"
         id="rect213" />
      <rect
         style="fill:#ffffff;fill-opacity:1;stroke-width:1.06666672"
         x="-788.86682"
         y="944.06226"
         width="0.40602955"
         height="0.57369"
         transform="matrix(0.70246161,-0.71172163,0.70125273,0.71291277,0,0)"
         id="rect215" />
      <polygon
         style="fill:#ffffff;fill-opacity:1"
         points="498.07,408.88 495.95,407.82 495.38,408.96 496.71,409.62 496.27,410.06 497.18,410.96 498.24,409.9 498.86,409.28 "
         transform="matrix(0.31636053,0,0,0.32107299,-30.193999,1190.8918)"
         id="polygon219" />
      <polygon
         style="fill:#ffffff;fill-opacity:1"
         points="481.64,393.6 480.83,392.62 479.55,393.68 478.92,394.21 479.59,394.69 481.08,395.75 481.82,394.72 481,394.13 "
         transform="matrix(0.31636053,0,0,0.32107299,-30.193999,1190.8918)"
         id="polygon221" />
      <path
         style="fill:#ffffff;fill-opacity:1;stroke-width:1.06666672"
         d="m 172.09438,1304.3421 c -0.0889,-0.3471 -0.48025,-0.4896 -0.5245,-0.5041 l -0.12813,0.3885 v 0 c 0.0319,0.012 0.0784,0.036 0.12496,0.067 l 0.0822,0.3531 c -0.0301,0.045 -0.0629,0.088 -0.0889,0.1182 l 0.29547,0.2764 c 0.21545,-0.2398 0.29517,-0.4722 0.23886,-0.6968 z"
         id="path223"
         inkscape:connector-curvature="0" />
      <polygon
         style="fill:#ffffff;fill-opacity:1"
         points="641.38,349.34 639.31,349.19 639.47,347.28 641.54,347.6 "
         transform="matrix(0.31636053,0,0,0.32107299,-30.193999,1190.8918)"
         id="polygon225" />
      <path
         style="fill:#ffffff;fill-opacity:1;stroke-width:1.06666672"
         d="m 188.271,1297.7438 c 0.28693,-0.1813 0.65392,-0.5118 0.60425,0.2559 -0.051,0.7661 -0.35273,0.5114 -0.60425,0.7661 -0.25151,0.2559 -0.40273,-0.7661 0,-1.022 z"
         id="path227"
         inkscape:connector-curvature="0" />
      <path
         style="fill:#ffffff;fill-opacity:1;stroke-width:1.06666672"
         d="m 191.68722,1294.8526 c -0.005,-0.014 -0.01,-0.061 -0.012,-0.095 -0.009,-0.1125 -0.0235,-0.2656 -0.10315,-0.4265 l -0.3597,0.1827 c 0.0446,0.091 0.0534,0.1875 0.061,0.28 0.0107,0.1195 0.0235,0.2559 0.13762,0.3423 0.0721,0.054 0.16325,0.07 0.27176,0.05 l -0.0769,-0.3955 c 0.031,0 0.0718,0.033 0.0813,0.062 z"
         id="path231"
         inkscape:connector-curvature="0" />
      <path
         style="fill:#ffffff;fill-opacity:1;stroke-width:1.06666672"
         d="m 190.79076,1295.1877 c 0.10219,0.4142 0.25151,0.8223 0.25815,0.8393 l 0.37774,-0.1438 c -0.003,0 -0.14933,-0.4033 -0.24582,-0.7956 l -0.39007,0.1002 z"
         id="path233"
         inkscape:connector-curvature="0" />
      <path
         style="fill:#ffffff;fill-opacity:1;stroke-width:1.06666672"
         d="m 189.32494,1296.7949 -0.40115,-0.041 c -0.0314,0.3214 0.0452,0.7186 0.36255,0.7831 l 0.0787,-0.4007 c 0.003,0 0.006,0 0.007,0 -0.0326,-0.029 -0.0623,-0.1932 -0.0478,-0.3444 z"
         id="path235"
         inkscape:connector-curvature="0" />
      <path
         style="fill:#ffffff;fill-opacity:1;stroke-width:1.06666672"
         d="m 187.56029,1288.6662 c -0.0209,-0.1311 -0.0993,-0.2328 -0.22018,-0.2864 -0.29802,-0.1309 -0.8004,0.085 -1.04652,0.2527 l 0.22272,0.3403 c 0.25499,-0.1727 0.58968,-0.2559 0.66434,-0.2177 -0.006,0 -0.0158,-0.015 -0.0184,-0.022 l 0.39798,-0.066 z"
         id="path237"
         inkscape:connector-curvature="0" />
      <path
         style="fill:#ffffff;fill-opacity:1;stroke-width:1.06666672"
         d="m 168.9689,1266.9009 c -0.26828,0.2729 -0.87252,0.4091 -0.87252,0.4091 l -0.20183,0.7493 -0.33471,0.2723 c 0,0 0.0665,0.2042 0,0.6813 -0.0674,0.4765 -0.67162,0.7493 -0.67162,0.7493 l -0.26827,0.3407 c 0,0 -1.61819,0.087 -1.81242,0 -0.60426,-0.2723 -0.20088,-1.09 0.20184,-1.0219 0.40209,0.068 -0.0681,-1.1584 -0.0681,-1.1584 l 0.5378,-0.067 c 0,0 0.0665,-1.2269 0.26827,-1.2269 0.20153,0 -0.0668,-0.4084 -0.33629,-0.6129 -0.26826,-0.2037 -0.60361,-0.8849 -0.87316,-0.8172 -0.26827,0.067 -1.34229,0 -1.34229,0 l -0.20153,0.4091 -0.73869,0.1358 c 0,0 0.0636,0.5269 -0.0655,0.6817 -0.4043,0.4764 -1.94718,1.4984 -1.27685,-0.2046 l 0.20088,-0.4081 v -0.6136 l -1.2069,-0.067 c 0,0 -0.60425,-0.2049 -0.60425,-0.4774 0,-0.2727 -0.0674,-0.6126 -0.0674,-0.6126 l -1.41001,-1.5668 -1.67735,-0.2043 -0.13508,-0.3412 -1.00573,-0.1362 c -1.20913,-0.6126 -2.28347,-0.068 -2.08164,0.9539 0.2012,1.0226 0.53622,1.431 -0.13381,1.431 -0.67227,0 -0.8061,-0.5448 -0.8061,-0.5448 0,0 -0.53621,-0.2048 -0.53621,0.067 0,0.2729 -0.20183,0.8178 0,1.09 0.20058,0.2723 -0.26953,0.6814 -0.47104,0.4768 -0.19995,-0.2045 -0.73744,-0.8165 -0.60297,-1.021 0.13382,-0.2045 -0.94084,-1.4994 0.13382,-1.7036 1.07438,-0.2046 -0.0671,-0.8178 0.33629,-0.9533 l 0.53622,-0.2729 h 0.53653 l 0.33598,-0.2729 -0.87251,-0.1356 -0.53621,-0.068 -1.0076,-0.068 c -1.00632,0.6813 -1.20722,1.4991 -1.20722,1.4991 -0.53812,1.0217 -1.81242,-0.4091 -1.3423,-0.9539 0.46914,-0.5452 -1.47738,-0.068 -1.81336,0.2042 -0.33628,0.2723 -1.34294,0.1362 -1.34294,0.1362 -0.20089,0.6135 -1.14048,-0.067 -0.87251,-0.4765 0.26858,-0.4088 0.26858,-0.6813 0.26858,-0.6813 l -0.33501,-0.068 -0.40242,0.7494 c -0.9399,0 -1.20913,0.5445 -1.0079,0.8855 0.20121,0.3401 -0.26828,-0.068 -0.40304,0.4088 -0.13319,0.4768 0.068,0.4768 0.47104,0.6812 0.40304,0.2046 -0.20183,0.2046 0.0668,0.5446 0.26828,0.3413 1.07406,0 0.60455,0.4774 -0.46979,0.4765 -1.41063,0.273 -1.41063,0.273 -0.0668,0.6119 -1.3423,0.4764 -1.47547,0.2722 -0.1351,-0.2045 -1.14113,-1.4311 -1.14113,-1.4311 l -1.27713,-0.068 c -0.13319,-0.9533 0.60487,-0.4768 0.87316,-1.2262 0.26985,-0.7497 0.40397,-1.9752 0.40397,-1.9752 0,0 -1.07531,-0.068 -1.14205,0.2723 -0.0665,0.3409 -0.73809,0.5452 -0.73809,0.5452 0,0 -0.53751,0.2038 -0.33597,0.4767 0.20151,0.2729 -0.40305,0.4081 -0.40305,0.4081 0,0 0.10475,0.4402 -0.0668,0.6133 -0.53623,0.5458 -1.87982,0.067 -2.0804,-0.1362 l -0.80608,-0.3406 -0.80576,-0.5448 -0.93926,0.408 -0.26827,0.2729 h -1.00758 l -0.0665,0.8166 1.81243,0.2041 0.13445,1.6863 -0.73934,-0.2546 h -0.46979 l -0.20089,-0.4091 -0.40303,-0.068 v 1.4984 l 0.40303,0.3413 0.33629,0.3397 0.67129,0.068 0.13445,0.8172 1.67735,0.069 0.20152,0.3401 1.00759,0.068 1.94657,1.9749 -0.13446,0.6135 -0.33628,0.2046 c 0.13508,0.4767 -0.87159,0.2045 -0.87159,0.2045 v 0.4081 l 0.46854,0.068 0.47105,0.2723 0.67068,-1.1579 c 0.73808,-0.4768 1.07308,0.2046 1.14141,0.6134 0.0665,0.4086 -0.33661,0.3402 -0.33661,0.3402 v 0.9546 l 0.40304,0.1355 c 0.67226,0.8178 -0.26827,1.2949 -0.26827,1.2949 l -0.20184,0.681 c -0.20151,0.6133 -0.93958,0.4765 -0.93958,0.4765 l -0.26764,0.409 -0.80673,0.2046 1.59383,0.2042 c 0.15155,-0.5452 0.55331,-0.6813 0.75485,-0.4088 0.20184,0.273 0.20184,0.7498 0.20184,0.7498 l 0.40429,0.068 -0.0684,0.7492 0.40304,0.1367 v 2.1797 l 0.46979,0.5449 c 0.80576,-0.3396 0.80576,0.2049 0.40241,0.4768 -0.40241,0.272 -0.13445,1.4991 -0.13445,1.4991 l -0.33566,0.34 v 0.5455 l -0.40241,0.2722 v 0.7492 c -0.67161,-0.3404 -1.47737,-0.2049 -1.67924,0 -0.60297,-0.4091 -1.87852,-0.2724 -1.87852,0.068 0.40209,0.5449 -0.46914,0.6813 -0.46914,0.6813 l -0.47105,0.5449 c 0.3363,0.6817 -0.3347,0.7491 -0.3347,0.7491 v 1.2949 l -0.80609,0.7493 0.068,1.7714 c 0,0.4768 1.00634,0.5446 1.20691,0.2723 0.20183,-0.2723 1.00791,0.5455 1.00791,0.5455 h 0.60297 l 0.13508,-1.2268 -0.40336,-0.2046 v -1.9759 l 0.67161,-0.7496 c 0.80576,-0.2724 0.53752,1.7722 0.53752,1.9765 0.0668,0.749 0.40146,0.6813 0.73808,0.5445 0.67101,-0.2723 0.13318,0.7503 -0.40304,0.6813 -0.53655,-0.067 -0.20184,0.6813 -0.20184,0.6813 l 0.33661,0.1368 -0.60487,0.4767 -0.53561,0.6137 -0.6729,-0.2049 -0.80452,-0.067 -0.26858,-0.4781 -0.47077,-0.067 -0.0668,0.9533 -0.33502,0.4087 -0.80576,0.8188 c 1.07437,0 -0.13509,0.7477 -0.40305,0.7477 0.60394,0.2045 -0.0668,0.8185 -1.61059,0.342 v 0.4762 l -0.53779,0.068 0.47104,0.5442 0.53622,0.068 -0.20152,1.1582 c 0,0.8854 -2.21482,0.2716 -2.41668,0.068 l -0.0668,1.2264 -0.40303,0.067 0.0668,0.8185 -0.0668,1.1584 0.73808,-0.1365 v 0.4772 l 1.81339,0.068 2.61785,-2.794 1.54352,-0.3399 c 0.13383,-0.6824 0.80452,0.1364 0.80452,0.1364 0.67161,-0.069 0.80608,0.4081 0.80608,0.4081 l 0.87316,0.1364 c 0.73744,0.2048 0.29168,0.2765 0.33502,0.5458 0.0665,0.4081 0.40241,0.2717 0.40241,0.2717 l 0.13509,-0.8855 0.40304,0.068 -0.40304,-0.4771 -0.73934,-0.3413 -0.80483,-0.34 c -0.53751,-0.7491 0.13413,-0.6127 0.67162,-0.5442 h 0.87251 c 0,0 1.00758,1.3617 1.00758,1.7026 0,0.3414 0.46979,0.4094 0.46979,0.4094 l 0.60297,-0.068 0.20183,0.4761 h 0.60394 l 0.20185,0.4081 h 1.20848 l 0.0671,-0.6126 -1.14237,-0.2033 -0.0665,-0.6822 -0.80483,-0.2045 c -0.26954,-1.1572 0.20056,-1.4984 0.53622,-0.9526 l 0.40272,0.067 -0.13445,-1.022 0.46947,-0.1364 -0.13383,-1.4311 -0.4024,-0.1351 v -0.4775 l 1.67735,0.069 c -0.1332,-0.8869 0.0677,-1.2953 0.0677,-1.2953 h 0.46979 l 0.0668,0.3417 2.05381,0.1936 1.45211,-1.6657 c -0.0731,-0.1272 0.14583,-0.2049 -0.0137,-0.3684 -0.20183,-0.2041 -0.47105,0 -0.80799,-0.2041 -0.3347,-0.2032 0,-1.3624 -0.0665,-1.6346 -0.0668,-0.2723 1.14238,-0.6823 0.94083,-0.068 -0.20151,0.6135 0,0.8857 0,0.8857 0.87252,-0.8177 1.61093,0.067 1.54417,0.2723 -0.0687,0.2042 0.46915,0.4088 0.80419,0.2042 0.33628,-0.2042 0.73901,0.6137 0.60458,1.0213 -0.13508,0.4088 -1.34198,0.3414 -1.40872,-0.067 -0.0687,-0.409 -0.27018,-0.2723 -0.40305,-0.068 -0.13509,0.2044 -0.73808,0.34 -1.07437,0.1354 -0.0681,-0.042 -0.10059,-0.076 -0.11959,-0.1084 l -1.4521,1.6657 0.0943,0.011 c 0.80483,0.4775 0.40304,1.0904 0.13508,1.2265 -0.26953,0.1364 -0.73934,0.1364 -0.73934,0.1364 l -0.13318,0.273 -1.74567,0.1354 -0.13509,0.6821 c -0.87251,-0.1379 -1.20723,0.817 -1.006,1.2932 0.20183,0.4761 0,0.8855 0,0.8855 l 0.73836,0.3413 0.93894,-0.2716 c 0.13508,-0.6823 0.73808,-0.8188 1.27587,-1.2265 0.53623,-0.409 1.41003,0.7478 1.14048,1.2936 -0.26827,0.5442 -0.26827,0.7491 -0.26827,0.7491 l 0.0665,0.6135 -0.67069,0.2719 -0.53654,0.273 -0.0684,0.3409 h -1.81177 l -0.33502,0.3401 -0.87316,0.069 -0.26954,0.4081 -0.60297,0.068 c 0,0 -1.00758,0.4771 -0.60426,1.0219 0.40273,0.5455 -1.67767,0.4772 -2.14871,-0.2728 -0.13445,0.6806 -0.87251,0.068 -0.87251,0.068 l -0.73808,-0.205 -0.0668,-1.0206 c -0.13446,-0.682 -1.41003,-0.682 -1.34231,-0.2045 0.0668,0.4771 -2.41761,0.2045 -2.41761,0.2045 l -0.80483,0.391 -0.73934,0.4264 -0.0665,0.34 -1.20912,0.1365 -0.53622,0.2729 -0.20121,-0.4091 h -0.53654 l -0.53751,0.7501 c -1.40937,0.068 -2.75168,0.8859 -2.61786,1.2264 0.13445,0.3401 -0.53622,0.6824 -0.53622,0.6824 l -0.60486,0.2019 -0.40178,0.6139 -0.80576,0.2729 -0.13509,1.4314 -0.40178,0.2716 v 0.6138 l -0.47076,0.1353 v 0.3412 l -0.67101,0.068 0.40177,1.0223 0.53877,0.2729 c 0.93958,0.1352 0.53622,1.2945 0.53622,1.2945 l 0.53654,0.067 0.26954,0.7491 0.53621,1.09 c 0.20184,0.8188 0.80609,0.614 1.07438,0.5458 0.26827,-0.067 0.53621,0.8172 0.53621,0.8172 l 2.68461,0.068 c 0,0 -0.13318,0.273 0.33661,0.4091 0.46915,0.1352 3.55716,0.273 3.69224,0.068 -0.13509,-0.6139 1.67702,-0.7503 2.41635,-0.2048 0.73744,0.5442 1.74502,0.2048 1.74502,0.2048 l 1.00666,1.2249 0.67258,1.4994 1.14048,0.3401 0.80484,0.2048 0.26953,1.1582 0.60298,0.068 0.20183,0.7499 c 0.73902,0.5446 -0.20183,1.7031 -0.20183,1.7031 v 1.4981 l 0.5375,0.2729 -0.0677,0.5458 0.87376,0.8842 1.00633,0.069 2.55143,2.7247 2.01299,0.6125 0.33502,1.0904 0.53812,-0.068 0.4024,-0.34 1.6106,-0.068 0.80608,-0.7503 0.87252,-0.1352 7.45109,-6.3361 -0.67227,-0.4091 v -1.4981 c 1.20848,-0.8856 1.27557,-2.4534 0.13446,-2.5896 -0.86556,-0.1035 -0.46914,-1.0219 0.3366,-1.1581 l 0.46915,-0.2035 v -0.6139 l 1.54385,-1.4297 v -1.0904 l -3.3553,-2.794 c -1.47738,-0.5442 0,-3.815 1.00573,-3.7467 1.00758,0.067 -0.0665,-5.0411 -0.0665,-5.0411 l -0.5378,-0.2719 0.13509,-1.6359 h -0.73808 l -1.20881,1.5678 -0.33502,1.0891 c -0.13446,1.4323 -4.29654,1.1581 -4.49844,0.9536 -0.20152,-0.2046 -1.6106,-0.8172 -1.6106,-0.8172 0,0 -1.07405,-0.8855 -1.27555,-0.6126 -0.20151,0.2729 -1.14048,-0.3413 -1.14048,-0.1365 0,0.2046 -0.87251,-0.4762 -0.87251,-0.4762 l -1.34231,-0.4774 1.0076,-0.2048 -0.20185,-0.8172 1.74378,0.8856 c 0.20183,0.2715 1.07438,0.2048 1.07438,0.2048 l 0.26826,0.341 c 0,0 0.5378,-0.069 0.87442,0.34 0.33501,0.4091 2.07974,0.068 2.07974,0.068 l 0.46979,0.4081 0.73808,0.2729 2.08163,0.068 0.0668,-1.2935 0.40304,-0.4091 -0.0674,-0.8184 0.4698,-0.408 v -0.6808 l 0.40304,-0.1364 0.0668,-1.4981 0.33503,-0.068 v -3.2705 l -1.00666,-0.9543 c -0.0665,0.3414 -1.14048,0.3414 -1.14048,0.3414 0,0 -0.26828,0.4761 -0.46979,0.4761 -0.20089,0 0.26859,0.6127 0.13381,1.022 -0.13381,0.4081 -0.67129,0.4081 -0.67129,0.4081 l -1.00759,0.2733 -0.26826,0.3409 h -1.07438 l -0.13319,-0.8854 1.20724,-0.3414 0.67128,-0.3397 0.33629,-0.6822 c 0.0665,-0.6804 0.87251,-0.613 0.87251,-0.613 0,0 1.54385,-1.2946 1.61059,-1.9065 0.0684,-0.6136 0.60488,-2.3169 1.54417,-2.3169 h 1.74568 c 0.67068,-0.2732 0.46946,-1.1584 0.46946,-1.1584 l 0.87283,-0.1356 0.13447,0.4768 c 0,0 1.2088,0.1361 1.3423,-0.068 0.13508,-0.2035 0.40304,-0.6812 0.73933,-0.4768 0.33534,0.2042 1.40937,-0.4771 1.40937,-0.4771 0.0668,-0.4768 1.74503,-0.2722 1.74503,-0.2722 l 0.20183,-0.613 c 0,0 -1.1408,-1.5668 -1.3423,-1.5668 -0.20184,0 -1.27555,-0.9546 -1.41034,-0.6136 -1.07277,-0.2723 -1.00633,-1.7714 -1.00633,-1.7714 l -0.40304,-0.9532 c 0,-0.5459 -1.0057,-1.7036 -1.20849,-1.5668 -1.00759,-0.7494 -0.26827,-1.6353 0,-1.7034 0.26827,-0.067 0.94055,-1.0219 0.94055,-1.0219 l 0.33503,-0.9539 1.14112,-0.3397 0.13445,-0.8858 -0.60296,-0.068 c 0,0 0.67004,-1.2266 1.00633,-1.2266 0.33629,0 2.55143,0 2.75135,-0.1367 0.20153,-0.1355 0.60395,-1.2255 0.60395,-1.4301 0,-0.2045 0.53843,-0.2728 0.73836,-0.3412 0.20152,-0.067 0.67129,-0.6127 0.80577,-0.8856 0.13444,-0.2742 -0.3344,-1.9778 -0.60362,-1.7051 z"
         id="path241"
         inkscape:connector-curvature="0" />
      <path
         style="fill:#ffffff;fill-opacity:1;stroke-width:1.06666672"
         d="m 131.78208,1291.4606 c 0.10059,-0.1013 0.20183,0.3069 0.40304,0.2559 0.19994,-0.051 0.3018,0.358 0.10091,0.358 -0.20184,0 -0.20184,0.2558 -0.20184,0.3579 0,0.1024 0,0.357 -0.15154,0.5105 -0.1509,0.1535 -0.30243,0.051 -0.50428,-0.051 -0.20088,-0.1024 -0.30053,-0.1024 -0.5533,-0.1024 -0.25118,0 -0.051,0.4091 -0.051,0.4091 0,0 -1.05725,-0.051 -0.85543,-0.2048 0.20152,-0.1522 0.40304,-0.2046 0.25245,-0.307 -0.15153,-0.1024 0,-0.2035 0,-0.4081 0,-0.2048 0.50364,-0.1024 0.35148,-0.2559 -0.14996,-0.1535 0.003,-0.7461 0.25151,-0.4091 l 0.15185,-0.3582 c -0.15185,-0.1529 -0.05,-0.2045 -0.35211,-0.305 -0.3018,-0.1024 -0.0512,-0.7161 -0.0512,-0.7161 l 0.0512,-0.4087 c 0.10059,-0.5099 1.10692,-0.5618 1.15789,-0.1024 0.0497,0.46 0,0.7667 0,0.7667 l 0.30243,0.1013 c 0,0 -0.0509,0.3083 -0.30243,0.3083 -0.25278,0 0,0.1513 -0.15154,0.3053 l 0.15185,0.2549 z"
         id="path245"
         inkscape:connector-curvature="0" />
      <path
         style="fill:#ffffff;fill-opacity:1;stroke-width:1.06666672"
         d="m 128.45873,1291.9734 c 0.15153,-0.3069 0.50331,-1.6353 0.90667,-1.2262 0.40146,0.4087 0.65393,0 0.65393,0 0,0 0.20152,0.2049 0.10058,0.6137 -0.10058,0.408 -0.20184,0.8173 -0.45429,0.8684 -0.25087,0.051 -0.4527,0.2045 -0.75326,0.2556 -0.30181,0.051 -0.45364,-0.5115 -0.45364,-0.5115 z"
         id="path247"
         inkscape:connector-curvature="0" />
    </g>
    <g
       id="g5453"
       transform="translate(98.442156,1212.9122)" />
    <path
       style="fill:#000000;stroke:#ffffff;stroke-width:5.97333336;stroke-linejoin:round;stroke-miterlimit:4;stroke-dasharray:none;stroke-dashoffset:0;stroke-opacity:1"
       d="m 122.09995,833.06519 -8.12732,26.75623 c -44.157554,18.59487 -73.98908,59.3846 -74.791151,110.36623 -0.09072,5.7622 0.08372,11.71136 0.753703,17.27769 l -18.954295,19.10316 38.977511,66.6233 26.603036,-7.0468 c 20.590066,16.007 43.054156,25.9101 71.138756,26.352 29.49054,0.464 54.72106,-9.0896 76.33011,-25.8806 l 25.87656,6.8448 38.97755,-66.6907 -19.22367,-19.70922 c 0.5175,-4.29746 1.22287,-8.7933 1.29245,-13.21687 0.8238,-52.36242 -29.56782,-95.00614 -75.06053,-114.15768 l -6.98247,-27.16028 z m 1.21806,2.50052 h 73.36396 l 6.66295,26.66591 c 44.22704,17.51532 75.18787,60.99659 74.39561,111.36344 -0.0703,4.47129 -1.0577,10.04162 -1.6113,14.37575 l -0.007,-0.004 19.35834,18.72779 -36.68195,63.534 -25.89232,-7.4081 0.0146,0.012 c -20.29687,15.5112 -47.24331,27.0867 -74.76848,26.6536 -26.19731,-0.4122 -51.71153,-11.8955 -71.043325,-26.672 l -0.01367,0.01 -25.892321,7.408 -36.681988,-63.5339 19.358339,-18.72783 -0.0068,-0.0177 C 43.167207,982.4251 42.17005,975.63616 42.260289,969.90182 43.03223,920.83681 73.710579,879.2699 116.6559,862.24949 Z"
       id="path3825-1-9-0"
       inkscape:connector-curvature="0"
       sodipodi:nodetypes="cccccccsccccsccccccsccccccsccccccscc" />
    <text
       xml:space="preserve"
       style="font-style:normal;font-variant:normal;font-weight:600;font-stretch:normal;font-size:12.80000019px;line-height:0%;font-family:'Bauhaus LT Demi';-inkscape-font-specification:'Bauhaus LT Demi Semi-Bold';letter-spacing:0px;word-spacing:0px;fill:#000000;fill-opacity:1;stroke:#000000;stroke-width:2.13333344;stroke-miterlimit:4;stroke-dasharray:none"
       x="-13.348042"
       y="1008.8504"
       id="text3057"><tspan
         sodipodi:role="line"
         id="tspan3059"
         x="-13.348042"
         y="1008.8504"
         style="font-size:25.51386642px;line-height:1.25;stroke-width:2.13333344"></tspan></text>
    <path
       sodipodi:nodetypes="cccccccsccccsccccccsccccccsccccccscc"
       inkscape:connector-curvature="0"
       id="path2995"
       d="m 118.73277,828.68787 -7.04982,28.17043 c -44.157553,18.59487 -75.470636,61.94365 -76.272707,112.92528 -0.09072,5.7622 0.218411,11.44199 0.88839,17.00832 l -20.03179,19.3725 41.267189,71.4721 26.064287,-7.4509 c 20.590061,16.007 46.353991,25.7082 74.438591,26.15 29.49054,0.464 56.74136,-9.3591 78.35042,-26.15 l 26.07858,7.4509 41.26723,-71.4721 -20.0318,-19.3725 c 0.51751,-4.29746 0.81881,-8.65861 0.8884,-13.08218 0.8238,-52.36241 -30.78001,-97.69987 -76.27272,-116.85142 l -7.04981,-28.17043 z m 4.58524,6.87784 h 73.36396 l 6.66295,26.66591 c 44.22704,17.51532 75.18787,60.99659 74.39561,111.36344 -0.0703,4.47129 -1.0577,10.04162 -1.6113,14.37575 l -0.007,-0.004 19.35834,18.72779 -36.68195,63.534 -25.89232,-7.4081 0.0146,0.012 c -20.29687,15.5112 -47.24331,27.0867 -74.76848,26.6536 -26.19731,-0.4122 -51.71153,-11.8955 -71.043325,-26.672 l -0.01367,0.01 -25.892321,7.408 -36.681988,-63.5339 19.358339,-18.72783 -0.0068,-0.0177 C 43.167207,982.4251 42.17005,975.63616 42.260289,969.90182 43.03223,920.83681 73.710579,879.2699 116.6559,862.24949 Z"
       style="fill:#000000;stroke:none;stroke-width:1.06666672" />
  </g>
</svg>
