<?xml version="1.0" encoding="UTF-8" standalone="no"?>
<!-- Created with Inkscape (http://www.inkscape.org/) -->

<svg
   xmlns:dc="http://purl.org/dc/elements/1.1/"
   xmlns:cc="http://creativecommons.org/ns#"
   xmlns:rdf="http://www.w3.org/1999/02/22-rdf-syntax-ns#"
   xmlns:svg="http://www.w3.org/2000/svg"
   xmlns="http://www.w3.org/2000/svg"
   xmlns:sodipodi="http://sodipodi.sourceforge.net/DTD/sodipodi-0.dtd"
   xmlns:inkscape="http://www.inkscape.org/namespaces/inkscape"
   width="298.13297"
   height="298.13812"
   id="svg2"
   version="1.1"
   inkscape:version="0.92.1 r15371"
   sodipodi:docname="scp-logo-de.svg"
   inkscape:export-filename="H:\SCP\Icons\scp-logo-de-400.png"
   inkscape:export-xdpi="128.8"
   inkscape:export-ydpi="128.8">
  <defs
     id="defs4">
    <marker
       style="overflow:visible"
       id="TriangleOutM"
       refX="0"
       refY="0"
       orient="auto"
       inkscape:stockid="TriangleOutM">
      <path
         style="fill-rule:evenodd;stroke:#000000;stroke-width:0.42666668pt"
         d="M 2.4618667,0 -1.2288,2.1333333 v -4.2666666 z"
         id="path4022"
         inkscape:connector-curvature="0" />
    </marker>
    <marker
       style="overflow:visible"
       id="TriangleOutS"
       refX="0"
       refY="0"
       orient="auto"
       inkscape:stockid="TriangleOutS">
      <path
         style="fill-rule:evenodd;stroke:#000000;stroke-width:0.21333334pt"
         d="M 1.2309333,0 -0.6144,1.0666667 v -2.1333334 z"
         id="path4025"
         inkscape:connector-curvature="0" />
    </marker>
  </defs>
  <sodipodi:namedview
     id="base"
     pagecolor="#ffffff"
     bordercolor="#666666"
     borderopacity="1.0"
     inkscape:pageopacity="0.0"
     inkscape:pageshadow="2"
     inkscape:zoom="1.979899"
     inkscape:cx="106.64527"
     inkscape:cy="148.70607"
     inkscape:document-units="px"
     inkscape:current-layer="layer1"
     showgrid="false"
     inkscape:showpageshadow="false"
     inkscape:window-width="1920"
     inkscape:window-height="1057"
     inkscape:window-x="-8"
     inkscape:window-y="-8"
     inkscape:window-maximized="1"
     showguides="true"
     inkscape:guide-bbox="true"
     fit-margin-top="14.28"
     fit-margin-bottom="14.29"
     fit-margin-right="5"
     fit-margin-left="5">
    <inkscape:grid
       type="xygrid"
       id="grid3097"
       empspacing="5"
       visible="true"
       enabled="true"
       snapvisiblegridlinesonly="true"
       originx="-10.933509"
       originy="-10.925685"
       spacingx="1.0666667"
       spacingy="1.0666667" />
  </sodipodi:namedview>
  <metadata
     id="metadata7">
    <rdf:RDF>
      <cc:Work
         rdf:about="">
        <dc:format>image/svg+xml</dc:format>
        <dc:type
           rdf:resource="http://purl.org/dc/dcmitype/StillImage" />
        <dc:title />
      </cc:Work>
    </rdf:RDF>
  </metadata>
  <g
     inkscape:label="Layer 1"
     inkscape:groupmode="layer"
     id="layer1"
     transform="translate(-10.933509,-813.45587)">
    <path
       sodipodi:nodetypes="csccccscc"
       inkscape:connector-curvature="0"
       id="path2994"
       d="m 86.561434,1066.145 c 20.590066,16.007 43.643416,25.9607 71.728016,26.4025 29.49054,0.464 54.13179,-9.1402 75.74085,-25.9311 l 25.87656,6.8448 38.97755,-66.6907 -19.22367,-19.70922 c 0.51751,-4.29746 1.07134,-8.92799 1.14093,-13.35156 0.8238,-52.36241 -29.4163,-94.87144 -74.90901,-114.02299 C 151.88291,897.8197 132.4171,965.21895 86.561434,1066.145 Z"
       style="fill:#ffcc00;fill-opacity:1;stroke:none;stroke-width:1.06666672" />
    <path
       style="fill:#000000;stroke:none;stroke-width:1.06666672"
       d="m 122.09995,833.06519 -8.12732,26.75623 c -44.157553,18.59487 -75.234935,59.48561 -76.037006,110.46724 -0.09072,5.7622 1.329579,11.61035 1.999558,17.17668 l -18.954295,19.10316 38.977511,66.6233 C 154.32193,995.6366 273.59949,899.34428 205.89266,859.68673 l -6.98247,-27.16028 z"
       id="path3776"
       inkscape:connector-curvature="0"
       sodipodi:nodetypes="ccccccccc" />
    <g
       id="g5453"
       transform="translate(98.442156,1212.9122)" />
    <path
       style="fill:#ff0000;fill-opacity:1;fill-rule:nonzero;stroke:none;stroke-width:1.06656516"
       d="M 32.575806,1031.7433 205.48094,855.52184 c 29.58214,19.55525 54.65421,41.09469 68.81719,69.63206 L 116.26389,1086.273 c -15.8627,-10.9359 -29.943658,-25.6727 -56.12086,-14.6043 z"
       id="rect3798"
       inkscape:connector-curvature="0"
       sodipodi:nodetypes="cccccc" />
    <path
       style="fill:none;fill-opacity:1;stroke:#ffffff;stroke-width:5.96999979;stroke-linejoin:miter;stroke-miterlimit:4;stroke-dasharray:none;stroke-dashoffset:0;stroke-opacity:1"
       d="m 123.31801,835.56571 h 73.36396 l 6.66295,26.66591 c 44.22704,17.51532 75.18787,60.99659 74.39561,111.36344 -0.0703,4.47129 -1.6113,14.37575 -1.6113,14.37575 l 19.35134,18.72379 -36.68195,63.534 -25.87772,-7.3961 c -20.29687,15.5112 -47.24331,27.0867 -74.76848,26.6536 -26.19731,-0.4122 -51.71153,-11.8955 -71.043325,-26.672 l -25.905991,7.418 -36.681988,-63.5339 19.351539,-18.74553 C 43.167207,982.4251 42.17005,975.63616 42.260289,969.90182 43.03223,920.83681 73.710579,879.2699 116.6559,862.24949 Z"
       id="path3825-1-9-0"
       inkscape:connector-curvature="0"
       sodipodi:nodetypes="cccsccccsccccscc" />
    <path
       style="fill:#000000;stroke:#ffffff;stroke-width:5.97;stroke-linejoin:miter;stroke-miterlimit:4;stroke-dasharray:none;stroke-dashoffset:0;stroke-opacity:1;paint-order:normal"
       d="m 153.12211,876.83264 v 12.12219 c -41.59521,3.4486 -74.599353,37.97524 -75.269705,80.58518 -0.203849,12.96881 2.613721,25.27573 7.79494,36.26619 l -10.488743,6.0611 6.877876,11.9216 10.503081,-6.0611 c 14.589491,20.9467 38.699691,34.8166 66.170841,35.2488 28.40228,0.4469 53.65285,-13.5702 68.75003,-35.2488 l 10.50307,6.0611 6.87788,-11.9216 -10.48874,-6.0618 c 4.82037,-10.23296 7.60539,-21.62637 7.7949,-33.67269 0.68409,-43.48352 -32.54511,-79.61873 -75.26967,-83.16438 v -12.13649 h -13.75576 z m 13.75576,25.93515 c 35.01314,3.5011 62.0773,33.32809 61.51395,69.13647 -0.15157,9.62137 -2.28741,18.74627 -6.00382,26.99546 l -25.1902,-14.54371 5.73158,-9.92988 -36.96858,-0.15754 18.62758,31.93891 5.73155,-9.92986 25.17589,14.54376 c -12.63954,17.5064 -33.34397,28.7651 -56.57049,28.3997 -22.45195,-0.3532 -42.21415,-11.4902 -54.42117,-28.3997 l 25.17589,-14.54376 5.73154,9.92986 18.62759,-31.93891 -36.96858,0.15754 5.73159,9.92988 -25.190206,14.54371 c -4.005835,-8.88494 -6.167241,-18.7706 -6.003824,-29.1591 0.551963,-35.08352 27.42437,-63.55851 61.51395,-66.9585 v 29.07312 H 141.659 l 18.34099,32.09653 18.34099,-32.09653 h -11.46311 z"
       id="path4900-6-3"
       inkscape:connector-curvature="0"
       sodipodi:nodetypes="ccccccccccccscccccccccccccsccccccccccccccc" />
    <text
       xml:space="preserve"
       style="font-style:normal;font-variant:normal;font-weight:600;font-stretch:normal;font-size:12.80000019px;line-height:0%;font-family:'Bauhaus LT Demi';-inkscape-font-specification:'Bauhaus LT Demi Semi-Bold';letter-spacing:0px;word-spacing:0px;fill:#000000;fill-opacity:1;stroke:#000000;stroke-width:2.13333344;stroke-miterlimit:4;stroke-dasharray:none"
       x="-13.348042"
       y="1008.8504"
       id="text3057"><tspan
         sodipodi:role="line"
         id="tspan3059"
         x="-13.348042"
         y="1008.8504"
         style="font-size:25.51386642px;line-height:1.25;stroke-width:2.13333344"> </tspan></text>
    <path
       sodipodi:nodetypes="cccccccsccccsccccccsccccccsccccccscc"
       inkscape:connector-curvature="0"
       id="path2995"
       d="m 118.73277,828.68787 -7.04982,28.17043 c -44.157553,18.59487 -75.470636,61.94365 -76.272707,112.92528 -0.09072,5.7622 0.218411,11.44199 0.88839,17.00832 l -20.03179,19.3725 41.267189,71.4721 26.064287,-7.4509 c 20.590061,16.007 46.353991,25.7082 74.438591,26.15 29.49054,0.464 56.74136,-9.3591 78.35042,-26.15 l 26.07858,7.4509 41.26723,-71.4721 -20.0318,-19.3725 c 0.51751,-4.29746 0.81881,-8.65861 0.8884,-13.08218 0.8238,-52.36241 -30.78001,-97.69987 -76.27272,-116.85142 l -7.04981,-28.17043 z m 4.58524,6.87784 h 73.36396 l 6.66295,26.66591 c 44.22704,17.51532 75.18787,60.99659 74.39561,111.36344 -0.0703,4.47129 -1.0577,10.04162 -1.6113,14.37575 l -0.007,-0.004 19.35834,18.72779 -36.68195,63.534 -25.89232,-7.4081 0.0146,0.012 c -20.29687,15.5112 -47.24331,27.0867 -74.76848,26.6536 -26.19731,-0.4122 -51.71153,-11.8955 -71.043325,-26.672 l -0.01367,0.01 -25.892321,7.408 -36.681988,-63.5339 19.358339,-18.72783 -0.0068,-0.0177 C 43.167207,982.4251 42.17005,975.63616 42.260289,969.90182 43.03223,920.83681 73.710579,879.2699 116.6559,862.24949 Z"
       style="fill:#000000;stroke:none;stroke-width:1.06666672;fill-opacity:1;stroke-opacity:1" />
    <path
       sodipodi:nodetypes="ccccccccccccscccccccccccccsccccccccccccccc"
       inkscape:connector-curvature="0"
       id="path838"
       d="m 153.12211,876.83264 v 12.12219 c -41.59521,3.4486 -74.599353,37.97524 -75.269705,80.58518 -0.203849,12.96881 2.613721,25.27573 7.79494,36.26619 l -10.488743,6.0611 6.877876,11.9216 10.503081,-6.0611 c 14.589491,20.9467 38.699691,34.8166 66.170841,35.2488 28.40228,0.4469 53.65285,-13.5702 68.75003,-35.2488 l 10.50307,6.0611 6.87788,-11.9216 -10.48874,-6.0618 c 4.82037,-10.23296 7.60539,-21.62637 7.7949,-33.67269 0.68409,-43.48352 -32.54511,-79.61873 -75.26967,-83.16438 v -12.13649 h -13.75576 z m 13.75576,25.93515 c 35.01314,3.5011 62.0773,33.32809 61.51395,69.13647 -0.15157,9.62137 -2.28741,18.74627 -6.00382,26.99546 l -25.1902,-14.54371 5.73158,-9.92988 -36.96858,-0.15754 18.62758,31.93891 5.73155,-9.92986 25.17589,14.54376 c -12.63954,17.5064 -33.34397,28.7651 -56.57049,28.3997 -22.45195,-0.3532 -42.21415,-11.4902 -54.42117,-28.3997 l 25.17589,-14.54376 5.73154,9.92986 18.62759,-31.93891 -36.96858,0.15754 5.73159,9.92988 -25.190206,14.54371 c -4.005835,-8.88494 -6.167241,-18.7706 -6.003824,-29.1591 0.551963,-35.08352 27.42437,-63.55851 61.51395,-66.9585 v 29.07312 H 141.659 l 18.34099,32.09653 18.34099,-32.09653 h -11.46311 z"
       style="fill:#000000;stroke:none;stroke-width:3.37;stroke-linejoin:miter;stroke-miterlimit:4;stroke-dasharray:none;stroke-dashoffset:0;stroke-opacity:1;paint-order:normal" />
  </g>
</svg>
