<?xml version="1.0" encoding="UTF-8" standalone="no"?>
<!-- Created with Inkscape (http://www.inkscape.org/) -->

<svg
   xmlns:dc="http://purl.org/dc/elements/1.1/"
   xmlns:cc="http://creativecommons.org/ns#"
   xmlns:rdf="http://www.w3.org/1999/02/22-rdf-syntax-ns#"
   xmlns:svg="http://www.w3.org/2000/svg"
   xmlns="http://www.w3.org/2000/svg"
   xmlns:xlink="http://www.w3.org/1999/xlink"
   xmlns:sodipodi="http://sodipodi.sourceforge.net/DTD/sodipodi-0.dtd"
   xmlns:inkscape="http://www.inkscape.org/namespaces/inkscape"
   width="298.13297"
   height="298.13812"
   id="svg2"
   version="1.1"
   inkscape:version="0.92.2 (5c3e80d, 2017-08-06)"
   sodipodi:docname="scp-logo-ko.svg"
   inkscape:export-filename="I:\SCP\Icons\scp-logo-ko-400.png"
   inkscape:export-xdpi="128.79936"
   inkscape:export-ydpi="128.79936">
  <defs
     id="defs4">
    <linearGradient
       inkscape:collect="always"
       id="linearGradient962">
      <stop
         style="stop-color:#cd2e3a;stop-opacity:1;"
         offset="0"
         id="stop958" />
      <stop
         id="stop980"
         offset="0.66274625"
         style="stop-color:#da251d;stop-opacity:1" />
      <stop
         style="stop-color:#ffffff;stop-opacity:1"
         offset="1"
         id="stop960" />
    </linearGradient>
    <linearGradient
       inkscape:collect="always"
       id="linearGradient954">
      <stop
         style="stop-color:#0047a0;stop-opacity:1;"
         offset="0"
         id="stop950" />
      <stop
         id="stop984"
         offset="0.66882557"
         style="stop-color:#29166f;stop-opacity:1" />
      <stop
         style="stop-color:#ffffff;stop-opacity:1"
         offset="1"
         id="stop952" />
    </linearGradient>
    <marker
       style="overflow:visible"
       id="TriangleOutM"
       refX="0"
       refY="0"
       orient="auto"
       inkscape:stockid="TriangleOutM">
      <path
         style="fill-rule:evenodd;stroke:#000000;stroke-width:0.42666668pt"
         d="M 2.4618667,0 -1.2288,2.1333333 v -4.2666666 z"
         id="path4022"
         inkscape:connector-curvature="0" />
    </marker>
    <marker
       style="overflow:visible"
       id="TriangleOutS"
       refX="0"
       refY="0"
       orient="auto"
       inkscape:stockid="TriangleOutS">
      <path
         style="fill-rule:evenodd;stroke:#000000;stroke-width:0.21333334pt"
         d="M 1.2309333,0 -0.6144,1.0666667 v -2.1333334 z"
         id="path4025"
         inkscape:connector-curvature="0" />
    </marker>
    <radialGradient
       inkscape:collect="always"
       xlink:href="#linearGradient954"
       id="radialGradient956"
       cx="159.82832"
       cy="966.03021"
       fx="159.82832"
       fy="966.03021"
       r="92.409759"
       gradientTransform="matrix(-1.0348163,-0.29685482,0.29412118,-1.0252871,41.015869,2008.8689)"
       gradientUnits="userSpaceOnUse" />
    <radialGradient
       inkscape:collect="always"
       xlink:href="#linearGradient962"
       id="radialGradient964"
       cx="148.52814"
       cy="163.03238"
       fx="148.52814"
       fy="163.03238"
       r="92.368682"
       gradientTransform="matrix(1.0451343,0.29981468,-0.29840628,1.0402248,52.836101,756.61457)"
       gradientUnits="userSpaceOnUse" />
  </defs>
  <sodipodi:namedview
     id="base"
     pagecolor="#ffffff"
     bordercolor="#666666"
     borderopacity="1.0"
     inkscape:pageopacity="0.0"
     inkscape:pageshadow="2"
     inkscape:zoom="1.268904"
     inkscape:cx="134.50751"
     inkscape:cy="60.491615"
     inkscape:document-units="px"
     inkscape:current-layer="layer1"
     showgrid="false"
     inkscape:showpageshadow="false"
     inkscape:window-width="1127"
     inkscape:window-height="1002"
     inkscape:window-x="2552"
     inkscape:window-y="408"
     inkscape:window-maximized="1"
     showguides="true"
     inkscape:guide-bbox="true"
     fit-margin-top="14.28"
     fit-margin-bottom="14.29"
     fit-margin-right="5"
     fit-margin-left="5"
     inkscape:snap-global="false">
    <inkscape:grid
       type="xygrid"
       id="grid3097"
       empspacing="5"
       visible="true"
       enabled="true"
       snapvisiblegridlinesonly="true"
       originx="-10.933509"
       originy="-10.925685"
       spacingx="1.0666667"
       spacingy="1.0666667" />
  </sodipodi:namedview>
  <metadata
     id="metadata7">
    <rdf:RDF>
      <cc:Work
         rdf:about="">
        <dc:format>image/svg+xml</dc:format>
        <dc:type
           rdf:resource="http://purl.org/dc/dcmitype/StillImage" />
        <dc:title />
      </cc:Work>
    </rdf:RDF>
  </metadata>
  <g
     inkscape:label="Layer 1"
     inkscape:groupmode="layer"
     id="layer1"
     transform="translate(-10.933509,-813.45587)">
    <path
       style="fill:#fdfdfe;fill-opacity:1;stroke:none;stroke-width:4.26666689;stroke-linejoin:round;stroke-miterlimit:4;stroke-dasharray:none;stroke-dashoffset:0;stroke-opacity:1"
       d="m 124.45698,832.69398 -8.12732,26.75623 c -44.157554,18.59487 -73.98908,59.3846 -74.791151,110.36623 -0.09072,5.7622 0.08372,11.71136 0.753703,17.27769 l -18.954295,19.10317 38.977511,66.6233 26.603036,-7.0468 c 20.590066,16.007 43.054156,25.9101 71.138756,26.352 29.49054,0.464 54.72106,-9.0896 76.33011,-25.8806 l 25.87656,6.8448 38.97755,-66.6907 -19.22367,-19.70923 c 0.5175,-4.29746 1.22287,-8.7933 1.29245,-13.21687 0.8238,-52.36242 -29.56782,-95.00614 -75.06053,-114.15768 l -6.98247,-27.16028 z"
       id="path3825-1-9-0"
       inkscape:connector-curvature="0"
       sodipodi:nodetypes="cccccccsccccsccc" />
    <text
       xml:space="preserve"
       style="font-style:normal;font-variant:normal;font-weight:600;font-stretch:normal;font-size:12.80000019px;line-height:0%;font-family:'Bauhaus LT Demi';-inkscape-font-specification:'Bauhaus LT Demi Semi-Bold';letter-spacing:0px;word-spacing:0px;fill:#000000;fill-opacity:1;stroke:#000000;stroke-width:2.13333344;stroke-miterlimit:4;stroke-dasharray:none"
       x="-13.348042"
       y="1008.8504"
       id="text3057"><tspan
         sodipodi:role="line"
         id="tspan3059"
         x="-13.348042"
         y="1008.8504"
         style="font-size:25.51386642px;line-height:1.25;stroke-width:2.13333344"> </tspan></text>
    <path
       style="fill:url(#radialGradient964);fill-opacity:1;stroke-width:8.43967247"
       d="m 189.45968,873.89136 c -32.97486,-10.07606 -68.81069,-2.68329 -95.105835,19.61995 -21.226728,18.11555 -23.796469,49.98976 -5.746081,71.27189 18.050376,21.28215 49.916566,23.94963 71.253936,5.96456 20.96202,-17.48954 52.01484,-15.21394 70.20332,5.14454 18.1885,20.35853 16.96447,51.4704 -2.76722,70.3372 40.93926,-36.5736 45.2861,-99.10547 9.80092,-140.99158 -12.54935,-14.79626 -29.08463,-25.67651 -47.63904,-31.34656 z"
       id="circle939"
       inkscape:connector-curvature="0"
       sodipodi:nodetypes="ccscsccc" />
    <path
       d="m 94.353549,893.51102 c -21.319499,18.09208 -23.609177,49.75928 -5.522696,71.08349 18.086487,21.32422 49.702777,24.23351 71.031727,6.15259 21.32953,-18.07433 53.27099,-15.44288 71.35498,5.87842 18.08402,21.32133 15.46712,53.26388 -5.84595,71.35758 -42.658,36.1607 -106.5511,30.9027 -142.723617,-11.7452 C 46.475457,993.58997 51.715636,929.69543 94.353549,893.51102 Z"
       id="path941"
       inkscape:connector-curvature="0"
       style="fill:url(#radialGradient956);fill-opacity:1;stroke-width:8.43967247"
       sodipodi:nodetypes="cscscsc" />
    <circle
       style="fill:#da251d;stroke-width:5.72028732;fill-opacity:1"
       cy="462.50836"
       cx="-868.31677"
       id="circle12"
       r="68.643448"
       transform="rotate(-71.309933)" />
    <path
       style="fill:#29166f;stroke-width:5.72028732;fill-opacity:1"
       inkscape:connector-curvature="0"
       id="path14"
       d="m 94.843726,948.74036 a 34.321726,34.321726 0 0 0 65.023594,21.99672 34.321735,34.321735 0 0 1 65.02361,21.99673 68.64346,68.64346 0 0 1 -130.047204,-43.99345 z" />
    <path
       style="fill:#000000;stroke:#f4f5f8;stroke-width:6;stroke-linejoin:miter;stroke-miterlimit:4;stroke-dasharray:none;stroke-dashoffset:0;stroke-opacity:1"
       d="m 153.12211,876.83264 v 12.12219 c -41.59521,3.4486 -74.599353,37.97524 -75.269705,80.58518 -0.203849,12.96881 2.613721,25.27573 7.79494,36.26619 l -10.488743,6.0611 6.877876,11.9216 10.503081,-6.0611 c 14.589491,20.9467 38.699691,34.8166 66.170841,35.2488 28.40228,0.4469 53.65285,-13.5702 68.75003,-35.2488 l 10.50307,6.0611 6.87788,-11.9216 -10.48874,-6.0468 c 0.002,0 -0.002,-0.011 0,-0.015 4.82037,-10.23296 7.60539,-21.62637 7.7949,-33.67269 0.68409,-43.48352 -32.54511,-79.61873 -75.26967,-83.16438 v -12.13649 h -13.75576 z m 13.75576,25.93515 c 35.01314,3.5011 62.0773,33.32809 61.51395,69.13647 -0.15157,9.62137 -2.28741,18.74627 -6.00382,26.99546 l -25.1902,-14.54371 5.73158,-9.92988 -36.96858,-0.15754 18.62758,31.93891 5.73155,-9.92986 25.17589,14.54376 c -12.63954,17.5064 -33.34397,28.7651 -56.57049,28.3997 -22.45195,-0.3532 -42.21415,-11.4902 -54.42117,-28.3997 l 25.17589,-14.54376 5.73154,9.92986 18.62759,-31.93891 -36.96858,0.15754 5.73159,9.92988 -25.190206,14.54371 c -4.005835,-8.88494 -6.167241,-18.7706 -6.003824,-29.1591 0.551963,-35.08352 27.42437,-63.55851 61.51395,-66.9585 v 29.07312 H 141.659 l 18.34099,32.09653 18.34099,-32.09653 h -11.46311 z"
       id="path4900-6-3"
       inkscape:connector-curvature="0" />
    <path
       sodipodi:nodetypes="cccccccsccccsccccccsccccccsccccccscc"
       inkscape:connector-curvature="0"
       id="path2995"
       d="m 118.73277,828.68787 -7.04982,28.17043 c -44.157553,18.59487 -75.470636,61.94365 -76.272707,112.92528 -0.09072,5.7622 0.218411,11.44199 0.88839,17.00832 l -20.03179,19.3725 41.267189,71.4721 26.064287,-7.4509 c 20.590061,16.007 46.353991,25.7082 74.438591,26.15 29.49054,0.464 56.74136,-9.3591 78.35042,-26.15 l 26.07858,7.4509 41.26723,-71.4721 -20.0318,-19.3725 c 0.51751,-4.29746 0.81881,-8.65861 0.8884,-13.08218 0.8238,-52.36241 -30.78001,-97.69987 -76.27272,-116.85142 l -7.04981,-28.17043 z m 4.58524,6.87784 h 73.36396 l 6.66295,26.66591 c 44.22704,17.51532 75.18787,60.99659 74.39561,111.36344 -0.0703,4.47129 -1.0577,10.04162 -1.6113,14.37575 l -0.007,-0.004 19.35834,18.72779 -36.68195,63.534 -25.89232,-7.4081 0.0146,0.012 c -20.29687,15.5112 -47.24331,27.0867 -74.76848,26.6536 -26.19731,-0.4122 -51.71153,-11.8955 -71.043325,-26.672 l -0.01367,0.01 -25.892321,7.408 -36.681988,-63.5339 19.358339,-18.72783 -0.0068,-0.0177 C 43.167207,982.4251 42.17005,975.63616 42.260289,969.90182 43.03223,920.83681 73.710579,879.2699 116.6559,862.24949 Z"
       style="fill:#000000;stroke:none;stroke-width:1.06666672;stroke-opacity:1" />
    <path
       inkscape:connector-curvature="0"
       id="path859"
       d="m 153.12211,876.83264 v 12.12219 c -41.59521,3.4486 -74.599353,37.97524 -75.269705,80.58518 -0.203849,12.96881 2.613721,25.27573 7.79494,36.26619 l -10.488743,6.0611 6.877876,11.9216 10.503081,-6.0611 c 14.589491,20.9467 38.699691,34.8166 66.170841,35.2488 28.40228,0.4469 53.65285,-13.5702 68.75003,-35.2488 l 10.50307,6.0611 6.87788,-11.9216 -10.48874,-6.0468 c 0.002,0 -0.002,-0.011 0,-0.015 4.82037,-10.23296 7.60539,-21.62637 7.7949,-33.67269 0.68409,-43.48352 -32.54511,-79.61873 -75.26967,-83.16438 v -12.13649 h -13.75576 z m 13.75576,25.93515 c 35.01314,3.5011 62.0773,33.32809 61.51395,69.13647 -0.15157,9.62137 -2.28741,18.74627 -6.00382,26.99546 l -25.1902,-14.54371 5.73158,-9.92988 -36.96858,-0.15754 18.62758,31.93891 5.73155,-9.92986 25.17589,14.54376 c -12.63954,17.5064 -33.34397,28.7651 -56.57049,28.3997 -22.45195,-0.3532 -42.21415,-11.4902 -54.42117,-28.3997 l 25.17589,-14.54376 5.73154,9.92986 18.62759,-31.93891 -36.96858,0.15754 5.73159,9.92988 -25.190206,14.54371 c -4.005835,-8.88494 -6.167241,-18.7706 -6.003824,-29.1591 0.551963,-35.08352 27.42437,-63.55851 61.51395,-66.9585 v 29.07312 H 141.659 l 18.34099,32.09653 18.34099,-32.09653 h -11.46311 z"
       style="fill:#000000;stroke:none;stroke-width:2.13333344;stroke-linejoin:round;stroke-miterlimit:4;stroke-dasharray:none;stroke-dashoffset:0;stroke-opacity:1" />
  </g>
</svg>
