<?xml version="1.0" encoding="UTF-8" standalone="no"?>
<!-- Created with Inkscape (http://www.inkscape.org/) -->

<svg
   xmlns:dc="http://purl.org/dc/elements/1.1/"
   xmlns:cc="http://creativecommons.org/ns#"
   xmlns:rdf="http://www.w3.org/1999/02/22-rdf-syntax-ns#"
   xmlns:svg="http://www.w3.org/2000/svg"
   xmlns="http://www.w3.org/2000/svg"
   xmlns:sodipodi="http://sodipodi.sourceforge.net/DTD/sodipodi-0.dtd"
   xmlns:inkscape="http://www.inkscape.org/namespaces/inkscape"
   width="294.93298"
   height="294.93811"
   id="svg2"
   version="1.1"
   inkscape:version="0.92.1 r15371"
   sodipodi:docname="scp_logo_sm-icon.svg"
   inkscape:export-filename="E:\\SCP\scp_sm_logo.png"
   inkscape:export-xdpi="16.27"
   inkscape:export-ydpi="16.27">
  <defs
     id="defs4">
    <marker
       style="overflow:visible"
       id="TriangleOutM"
       refX="0"
       refY="0"
       orient="auto"
       inkscape:stockid="TriangleOutM">
      <path
         style="fill-rule:evenodd;stroke:#000000;stroke-width:0.42666668pt"
         d="M 2.4618667,0 -1.2288,2.1333333 v -4.2666666 z"
         id="path4022"
         inkscape:connector-curvature="0" />
    </marker>
    <marker
       style="overflow:visible"
       id="TriangleOutS"
       refX="0"
       refY="0"
       orient="auto"
       inkscape:stockid="TriangleOutS">
      <path
         style="fill-rule:evenodd;stroke:#000000;stroke-width:0.21333334pt"
         d="M 1.2309333,0 -0.6144,1.0666667 v -2.1333334 z"
         id="path4025"
         inkscape:connector-curvature="0" />
    </marker>
  </defs>
  <sodipodi:namedview
     id="base"
     pagecolor="#ffffff"
     bordercolor="#666666"
     borderopacity="1.0"
     inkscape:pageopacity="0.0"
     inkscape:pageshadow="2"
     inkscape:zoom="1.4"
     inkscape:cx="181.20888"
     inkscape:cy="99.297972"
     inkscape:document-units="px"
     inkscape:current-layer="layer2"
     showgrid="false"
     inkscape:showpageshadow="false"
     inkscape:window-width="1121"
     inkscape:window-height="1001"
     inkscape:window-x="1912"
     inkscape:window-y="-8"
     inkscape:window-maximized="1"
     fit-margin-top="12.28"
     fit-margin-left="3"
     fit-margin-right="3"
     fit-margin-bottom="12.29">
    <inkscape:grid
       type="xygrid"
       id="grid3097"
       empspacing="5"
       visible="true"
       enabled="true"
       snapvisiblegridlinesonly="true"
       originx="-12.533509"
       originy="-12.525742"
       spacingx="1.0666667"
       spacingy="1.0666667" />
  </sodipodi:namedview>
  <metadata
     id="metadata7">
    <rdf:RDF>
      <cc:Work
         rdf:about="">
        <dc:format>image/svg+xml</dc:format>
        <dc:type
           rdf:resource="http://purl.org/dc/dcmitype/StillImage" />
        <dc:title />
      </cc:Work>
    </rdf:RDF>
  </metadata>
  <g
     inkscape:label="Base layer (don't change)"
     inkscape:groupmode="layer"
     id="layer1"
     transform="translate(-12.533509,-815.05587)"
     sodipodi:insensitive="true">
    <circle
       style="opacity:1;fill:#ffffff;fill-opacity:1;stroke:none;stroke-width:8.89999962;stroke-miterlimit:4;stroke-dasharray:none;stroke-opacity:1;paint-order:markers stroke fill"
       id="path843"
       cx="160.7478"
       cy="970.35107"
       r="101.78571" />
    <path
       style="fill:#ffffff;fill-opacity:1;stroke:none;stroke-width:1.06666672"
       d="m 118.73333,828.68633 -7.06666,28.16666 C 67.509109,875.44786 36.20207,918.80469 35.4,969.78633 c -0.09072,5.76219 0.230021,11.43366 0.9,17 l -20.033333,19.36667 41.266666,71.5 L 83.6,1070.1863 c 20.59006,16.0071 46.34874,25.6915 74.43333,26.1334 29.49054,0.464 56.75761,-9.3424 78.36667,-26.1334 l 26.06667,7.4667 41.26666,-71.5 L 283.7,986.78633 c 0.5175,-4.29747 0.83041,-8.6431 0.9,-13.06667 0.8238,-52.36241 -30.77396,-97.71513 -76.26667,-116.86667 l -7.06666,-28.16666 z m 42.03334,67.16666 c 41.02687,0 74.26666,33.27313 74.26666,74.3 0,41.02691 -33.23979,74.26671 -74.26666,74.26671 -41.02687,0 -74.300003,-33.2398 -74.300003,-74.26671 0,-41.02687 33.273133,-74.3 74.300003,-74.3 z"
       id="path2992"
       inkscape:connector-curvature="0" />
    <path
       style="fill:#000000;stroke:#000000;stroke-width:1.06666672;stroke-linejoin:round;stroke-miterlimit:4;stroke-dasharray:none;stroke-dashoffset:0;stroke-opacity:1"
       d="m 118.73277,828.68787 -7.04982,28.17043 c -44.157553,18.59487 -75.470636,61.94365 -76.272707,112.92528 -0.09072,5.7622 0.218411,11.44199 0.88839,17.00832 l -20.03179,19.3725 41.267189,71.4721 26.064287,-7.4509 c 20.590061,16.007 46.353991,25.7082 74.438591,26.15 29.49054,0.464 56.74136,-9.3591 78.35042,-26.15 l 26.07858,7.4509 41.26723,-71.4721 -20.0318,-19.3725 c 0.51751,-4.29746 0.81881,-8.65861 0.8884,-13.08218 0.8238,-52.36241 -30.78001,-97.69987 -76.27272,-116.85142 l -7.04981,-28.17043 z m 4.58524,6.87784 h 73.36396 l 6.66295,26.66591 c 44.22704,17.51532 75.18802,60.99659 74.39561,111.36344 -0.0702,4.47129 -0.39209,8.87706 -0.94569,13.21118 l -0.26943,1.56466 18.95427,18.3237 -36.68194,63.5339 -25.0842,-6.7345 -2.26969,1.8627 c -20.29686,15.5111 -45.76711,24.5628 -73.29229,24.1297 -26.19731,-0.4122 -50.26365,-9.3533 -69.595435,-24.1297 l -2.337024,-1.9301 -25.016856,6.8019 -36.681987,-63.5339 18.886933,-18.25636 -0.202045,-1.632 c -0.705448,-5.52757 -1.035939,-11.17365 -0.9457,-16.908 0.771942,-49.065 31.450291,-90.63191 74.395614,-107.65233 z"
       id="path3825-1-9-0"
       inkscape:connector-curvature="0"
       sodipodi:nodetypes="cccccccsccccscccccccccccccsccccccscc" />
    <g
       id="g5453"
       transform="translate(98.442156,1212.9122)" />
    <path
       style="fill:#000000;stroke:#000000;stroke-width:1.06666672;stroke-linejoin:round;stroke-miterlimit:4;stroke-dasharray:none;stroke-dashoffset:0;stroke-opacity:1"
       d="m 153.12211,876.83264 v 12.12219 c -41.59521,3.4486 -74.599353,37.97524 -75.269705,80.58518 -0.203849,12.96881 2.613721,25.27573 7.79494,36.26619 l -10.488743,6.0611 6.877876,11.9216 10.503081,-6.0611 c 14.589491,20.9467 38.699691,34.8166 66.170841,35.2488 28.40228,0.4469 53.65285,-13.5702 68.75003,-35.2488 l 10.50307,6.0611 6.87788,-11.9216 -10.48874,-6.0468 c 0.002,0 -0.002,-0.011 0,-0.015 4.82037,-10.23296 7.60539,-21.62637 7.7949,-33.67269 0.68409,-43.48352 -32.54511,-79.61873 -75.26967,-83.16438 v -12.13649 h -13.75576 z m 13.75576,25.93515 c 35.01314,3.5011 62.0773,33.32809 61.51395,69.13647 -0.15157,9.62137 -2.28741,18.74627 -6.00382,26.99546 -6.14123,10.84228 -0.16101,0.80414 -6.89218,11.92168 -12.63954,17.5064 -33.34397,28.7651 -56.57049,28.3997 -22.45195,-0.3532 -42.21415,-11.4902 -54.42117,-28.3997 -7.509651,-12.43424 1.89494,3.7267 -6.892176,-11.92168 -4.005835,-8.88494 -6.167241,-18.7706 -6.003824,-29.1591 0.551963,-35.08352 27.42437,-63.55851 61.51395,-66.9585 13.98587,-0.45103 0.70814,-0.27445 13.75576,-0.0143 z"
       id="path4900-6-3"
       inkscape:connector-curvature="0"
       sodipodi:nodetypes="cccccccscccccsccccccccsccsccc" />
    <text
       xml:space="preserve"
       style="font-style:normal;font-variant:normal;font-weight:600;font-stretch:normal;font-size:12.80000019px;line-height:0%;font-family:'Bauhaus LT Demi';-inkscape-font-specification:'Bauhaus LT Demi Semi-Bold';letter-spacing:0px;word-spacing:0px;fill:#000000;fill-opacity:1;stroke:#000000;stroke-width:2.13333344;stroke-miterlimit:4;stroke-dasharray:none"
       x="-13.348042"
       y="1008.8504"
       id="text3057"><tspan
         sodipodi:role="line"
         id="tspan3059"
         x="-13.348042"
         y="1008.8504"
         style="font-size:25.51386642px;line-height:1.25;stroke-width:2.13333344"> </tspan></text>
  </g>
  <g
     inkscape:groupmode="layer"
     id="layer2"
     inkscape:label="Logo layer (resize so it fits in the center)" />
</svg>
